<?xml version="1.0" standalone="no"?>
<!DOCTYPE svg PUBLIC "-//W3C//DTD SVG 20010904//EN"
 "http://www.w3.org/TR/2001/REC-SVG-20010904/DTD/svg10.dtd">
<svg version="1.0" xmlns="http://www.w3.org/2000/svg"
 width="1918.000000pt" height="204.000000pt" viewBox="0 0 1918.000000 204.000000"
 preserveAspectRatio="xMidYMid meet">

<g transform="translate(0.000000,204.000000) scale(0.100000,-0.100000)"
fill="#ffffff" stroke="none">
<path d="M2095 1496 c-208 -50 -355 -244 -355 -466 0 -224 144 -423 345 -475
215 -55 443 54 534 255 15 33 21 66 21 128 l0 82 -195 0 -195 0 0 -45 0 -45
150 0 150 0 0 -25 c0 -14 -11 -48 -25 -76 -71 -140 -238 -220 -391 -189 -157
32 -268 153 -296 324 -27 162 60 344 197 415 135 69 312 42 419 -64 l43 -44
32 33 32 33 -55 51 c-114 104 -265 144 -411 108z"/>
<path d="M4701 1494 c-208 -56 -351 -243 -351 -459 0 -239 171 -441 404 -477
292 -45 547 178 547 477 0 221 -141 404 -354 461 -66 18 -177 17 -246 -2z
m282 -112 c146 -68 239 -231 222 -389 -8 -79 -59 -184 -116 -242 -146 -145
-393 -141 -533 9 -142 152 -144 384 -5 535 113 123 283 157 432 87z"/>
<path d="M5961 1499 c-75 -15 -168 -65 -232 -125 -264 -253 -154 -707 196
-810 75 -22 192 -22 267 0 62 18 158 77 198 121 l25 27 -34 28 -34 29 -46 -39
c-62 -51 -118 -78 -185 -88 -161 -25 -331 69 -404 226 -24 50 -27 69 -27 157
0 91 3 106 31 165 75 155 238 247 392 222 78 -13 137 -41 195 -92 l44 -39 32
33 32 33 -45 41 c-106 97 -260 140 -405 111z"/>
<path d="M11477 1500 c-96 -25 -174 -94 -197 -175 -7 -25 -10 -70 -8 -100 9
-109 80 -168 285 -238 45 -15 96 -38 114 -50 155 -104 69 -297 -131 -297 -64
0 -111 15 -169 55 -28 19 -54 35 -58 35 -5 -1 -21 -11 -36 -24 -34 -27 -29
-45 21 -80 188 -129 438 -97 525 69 16 30 21 59 21 116 1 67 -2 81 -29 125
-38 61 -104 102 -234 145 -175 58 -211 87 -211 169 0 61 30 107 90 138 38 20
56 23 120 19 71 -3 114 -18 172 -59 15 -11 23 -8 50 20 l33 33 -31 28 c-66 59
-231 95 -327 71z"/>
<path d="M12271 1499 c-75 -15 -168 -65 -232 -125 -264 -253 -154 -707 196
-810 75 -22 192 -22 267 0 62 18 158 77 198 121 l25 27 -34 28 -34 29 -46 -39
c-62 -51 -118 -78 -185 -88 -161 -25 -331 69 -404 226 -24 50 -27 69 -27 157
0 91 3 106 31 165 75 155 238 247 392 222 78 -13 137 -41 195 -92 l44 -39 32
33 32 33 -45 41 c-106 97 -260 140 -405 111z"/>
<path d="M14805 1497 c-221 -57 -365 -243 -365 -471 0 -144 46 -251 149 -350
145 -138 348 -169 526 -81 66 32 145 94 145 113 0 4 -13 21 -29 37 l-30 28
-51 -46 c-190 -171 -496 -87 -591 163 -53 139 -22 293 83 406 48 52 157 109
227 119 98 13 207 -24 286 -96 l43 -40 33 29 c21 19 30 34 26 45 -10 26 -123
104 -184 127 -71 27 -199 34 -268 17z"/>
<path d="M16565 1497 c-221 -57 -365 -243 -365 -471 0 -144 46 -251 149 -350
145 -138 348 -169 526 -81 66 32 145 94 145 113 0 4 -13 21 -29 37 l-30 28
-51 -46 c-190 -171 -496 -87 -591 163 -53 139 -22 293 83 406 48 52 157 109
227 119 98 13 207 -24 286 -96 l43 -40 33 29 c21 19 30 34 26 45 -10 26 -123
104 -184 127 -71 27 -199 34 -268 17z"/>
<path d="M50 1025 l0 -475 45 0 45 0 2 396 3 396 286 -393 285 -394 47 -3 47
-3 0 475 0 476 -45 0 -45 0 0 -391 c0 -214 -4 -388 -9 -385 -4 3 -134 179
-287 391 l-279 385 -47 0 -48 0 0 -475z"/>
<path d="M1218 1453 c-11 -26 -104 -232 -206 -458 -101 -226 -186 -418 -189
-427 -5 -15 2 -18 43 -18 l49 0 51 113 50 112 258 0 258 0 50 -112 51 -113 49
0 c42 0 49 2 44 18 -3 9 -98 222 -210 472 l-205 455 -36 3 c-34 3 -37 1 -57
-45z m165 -345 c53 -120 97 -220 97 -223 0 -3 -94 -5 -209 -5 l-209 0 85 188
c47 103 94 207 104 231 11 24 23 40 28 35 4 -5 51 -107 104 -226z"/>
<path d="M3048 1453 c-11 -26 -104 -232 -206 -458 -101 -226 -186 -418 -189
-427 -5 -15 2 -18 43 -18 l49 0 51 113 50 112 258 0 258 0 50 -112 51 -113 49
0 c42 0 49 2 44 18 -3 9 -98 222 -210 472 l-205 455 -36 3 c-34 3 -37 1 -57
-45z m165 -345 c53 -120 97 -220 97 -223 0 -3 -94 -5 -209 -5 l-209 0 85 188
c47 103 94 207 104 231 11 24 23 40 28 35 4 -5 51 -107 104 -226z"/>
<path d="M3570 1025 l0 -475 45 0 45 0 2 396 3 396 286 -393 285 -394 47 -3
47 -3 0 475 0 476 -45 0 -45 0 0 -391 c0 -214 -4 -388 -9 -385 -4 3 -134 179
-287 391 l-279 385 -47 0 -48 0 0 -475z"/>
<path d="M6450 1024 l0 -475 48 3 47 3 3 193 2 193 106 -3 106 -3 126 -192
125 -193 59 0 c45 0 57 3 52 13 -5 6 -59 90 -121 185 -63 94 -116 178 -119
185 -3 8 12 17 43 26 72 22 146 99 168 175 34 115 5 219 -81 295 -72 63 -112
71 -356 71 l-208 0 0 -476z m409 375 c91 -20 141 -86 141 -181 0 -68 -32 -125
-85 -155 -37 -21 -53 -23 -202 -23 l-163 0 0 185 0 185 133 0 c72 0 152 -5
176 -11z"/>
<path d="M7150 1025 l0 -475 333 0 332 0 51 113 50 112 258 0 258 0 50 -112
51 -113 49 0 c42 0 49 2 44 18 -3 9 -98 222 -210 472 l-205 455 -37 0 -37 0
-201 -449 c-143 -320 -202 -441 -204 -422 l-3 26 -245 0 -244 0 0 160 0 160
226 0 225 0 -3 48 -3 47 -223 3 -222 2 2 168 3 167 238 3 237 2 0 45 0 45
-285 0 -285 0 0 -475z m1133 83 c53 -120 97 -220 97 -223 0 -3 -94 -5 -209 -5
l-209 0 85 188 c47 103 94 207 104 231 11 24 23 40 28 35 4 -5 51 -107 104
-226z"/>
<path d="M8582 1453 l3 -48 168 -3 167 -2 0 -425 0 -425 50 0 50 0 0 425 0
425 170 0 170 0 0 50 0 50 -391 0 -390 0 3 -47z"/>
<path d="M9400 1025 l0 -475 50 0 50 0 0 475 0 475 -50 0 -50 0 0 -475z"/>
<path d="M9534 1483 c3 -10 84 -223 179 -473 l172 -455 61 -3 61 -3 168 443
c92 244 174 457 181 473 10 25 13 -50 13 -442 l1 -473 290 0 290 0 0 50 0 50
-240 0 -240 0 0 160 0 160 220 0 220 0 0 50 0 50 -220 0 -220 0 0 170 0 170
235 0 235 0 0 45 0 45 -343 0 -343 0 -154 -421 -154 -421 -26 69 c-14 37 -84
227 -155 420 l-130 353 -53 0 c-46 0 -53 -2 -48 -17z"/>
<path d="M12782 1028 l3 -473 48 -3 47 -3 0 475 0 476 -50 0 -50 0 2 -472z"/>
<path d="M12970 1025 l0 -475 290 0 290 0 0 50 0 50 -240 0 -240 0 0 160 0
160 220 0 220 0 0 50 0 50 -220 0 -220 0 0 170 0 170 235 0 235 0 0 45 0 45
-285 0 -285 0 0 -475z"/>
<path d="M13602 1028 l3 -473 47 -3 48 -3 2 393 3 393 285 -393 285 -392 48 0
47 0 0 475 0 475 -50 0 -50 0 -2 -390 -3 -390 -283 390 -284 390 -49 0 -49 0
2 -472z"/>
<path d="M15302 1028 l3 -473 293 -3 292 -2 0 50 0 50 -245 0 -245 0 0 160 0
160 223 2 222 3 0 45 0 45 -222 3 -223 2 0 170 0 170 235 0 235 0 0 45 0 45
-285 0 -285 0 2 -472z"/>
<path d="M17062 1028 l3 -473 315 0 315 0 3 48 3 47 -270 0 -271 0 0 425 0
425 -50 0 -50 0 2 -472z"/>
<path d="M17750 1184 c0 -249 3 -329 16 -383 38 -171 154 -255 349 -254 190 1
297 85 340 265 11 49 15 135 15 376 l0 312 -50 0 -50 0 0 -318 c0 -374 -4
-397 -78 -471 -58 -58 -113 -76 -210 -69 -109 8 -173 55 -213 156 -22 54 -23
73 -27 380 l-4 322 -44 0 -44 0 0 -316z"/>
<path d="M18540 1024 l0 -476 213 4 213 3 59 30 c168 86 195 298 54 419 -24
20 -49 36 -58 36 -10 0 -5 10 16 33 63 66 85 147 63 238 -10 42 -24 64 -65
105 -73 74 -114 84 -327 84 l-168 0 0 -476z m386 359 c21 -10 46 -31 57 -44
44 -59 38 -160 -11 -213 -44 -47 -79 -56 -217 -56 l-125 0 0 163 c0 90 3 167
8 171 4 5 62 6 128 4 95 -4 130 -9 160 -25z m18 -413 c82 -19 129 -79 129
-165 0 -72 -25 -113 -87 -144 -46 -23 -61 -25 -200 -25 l-151 -1 -3 173 -2
172 137 0 c76 0 156 -5 177 -10z"/>
</g>
</svg>
