<svg width="2292" height="2293" xmlns="http://www.w3.org/2000/svg" xmlns:xlink="http://www.w3.org/1999/xlink" xml:space="preserve" overflow="hidden"><g transform="translate(-1054 -91)"><rect x="1884" y="566" width="833" height="781" fill="#FFFFFF"/><rect x="1612" y="495" width="689" height="1547" fill="#FFFFFF"/><rect x="1818" y="284" width="658" height="1774" fill="#FFFFFF"/><path d="M1730.96 1974.72 2540.89 2059.08 2529.31 2170.33 1719.37 2085.97Z" fill="#FFFFFF" fill-rule="evenodd"/><path d="M1970.86 2041.37 2482.25 2137.88 2459.31 2259.41 1947.93 2162.9Z" fill="#FFFFFF" fill-rule="evenodd"/><rect x="2207" y="2150" width="558" height="69.9998" fill="#FFFFFF"/><rect x="2148" y="2117" width="550" height="79.9998" fill="#FFFFFF"/><rect x="2191" y="2129" width="550" height="79" fill="#FFFFFF"/><rect x="1812" y="1255" width="834" height="781" fill="#FFFFFF"/><rect x="2558" y="284" width="91" height="311" fill="#FFFFFF"/><path d="M2617.71 316.418 2641.19 311.522 2659.06 397.228 2635.58 402.124Z" fill="#FFFFFF" fill-rule="evenodd"/><path d="M2631.44 378.877 2655.4 380.116 2650.88 467.548 2626.92 466.309Z" fill="#FFFFFF" fill-rule="evenodd"/><path d="M2500.82 267.751 2581.57 277.404 2571.17 364.334 2490.43 354.681Z" fill="#FFFFFF" fill-rule="evenodd"/><path d="M1740.99 2051.71 1969.78 2081.03 1997.98 2117.51 1993.83 2149.85 1993.83 2149.85 1765.04 2120.53 1736.84 2084.05 1740.99 2051.71Z" fill="#FFFFFF" fill-rule="evenodd"/><rect x="1720" y="2073" width="25.9998" height="20" fill="#FFFFFF"/><rect x="1735" y="2082" width="26.0001" height="21" fill="#FFFFFF"/><path d="M1736.65 2076.79 1772.07 2101.3 1761.09 2117.18 1725.66 2092.66Z" fill="#FFFFFF" fill-rule="evenodd"/><rect x="2737" y="2141" width="16.0002" height="17.0002" fill="#FFFFFF"/><path d="M2660.17 2202.54 2742.4 2208.19 2741.29 2224.41 2659.06 2218.76Z" fill="#FFFFFF" fill-rule="evenodd"/><path d="M2762.44 2149.5 2772.14 2196.46 2755.99 2199.8 2746.28 2152.84Z" fill="#FFFFFF" fill-rule="evenodd"/><rect x="1987" y="256" width="153" height="62.9999" fill="#FFFFFF"/><path d="M1149.21 2247.99C1147.83 2246.62 1126.29 2245.7 1101.08 2245.7 1069.91 2245.7 1050.65 2243.87 1041.48 2239.28 1034.15 2235.62 1000.69 2229.2 966.766 2225.53 926.426 2220.49 903.048 2215.91 897.547 2211.32 893.422 2207.2 880.128 2203.53 867.751 2202.61 798.991 2198.03 575.292 2109.1 529.452 2067.84 500.573 2042.17 476.736 2028.88 476.736 2039.42 476.736 2043.55 525.326 2087.1 558.79 2113.22 580.334 2129.73 576.667 2139.35 555.122 2123.31 548.246 2118.27 527.16 2103.6 508.366 2090.76 464.818 2061.43 395.141 1996.33 391.474 1982.58 389.64 1975.7 382.764 1969.29 371.304 1964.7 358.01 1959.2 352.968 1954.62 350.676 1943.62 348.842 1936.28 338.299 1918.4 327.298 1905.11 316.296 1891.36 307.128 1878.52 307.128 1876.69 307.128 1872.56 266.789 1815.72 253.495 1801.05 247.536 1794.64 242.952 1787.3 243.41 1785.01 245.702 1772.17 242.494 1763.92 236.076 1766.67 231.95 1768.05 229.2 1766.67 229.2 1762.55 229.2 1758.88 223.699 1753.38 216.823 1750.17 209.947 1746.96 201.238 1738.25 197.57 1730.46 182.902 1698.83 178.776 1691.95 154.481 1653.45 140.27 1631.45 127.894 1610.82 126.977 1607.61 126.06 1604.4 123.768 1603.48 121.934 1604.86 120.101 1606.69 121.934 1615.86 126.06 1625.49 130.644 1636.49 131.561 1644.28 128.81 1647.03 126.06 1649.78 130.644 1663.53 142.562 1685.08 152.189 1703.41 160.44 1721.29 160.44 1724.5 159.982 1732.75 128.352 1695.62 128.352 1686.91 128.352 1683.24 124.226 1674.08 119.184 1666.28 114.142 1658.95 110.016 1649.78 110.016 1646.57 110.016 1642.91 105.89 1634.2 100.848 1627.32 88.4712 1609.9 66.9264 1557.18 49.9656 1503.55 35.2968 1456.34 30.2544 1402.7 39.8808 1399.5 43.548 1398.12 45.84 1401.79 46.2984 1408.2 46.7568 1415.08 47.6736 1416.46 49.0488 1410.96 49.9656 1406.83 46.2984 1392.62 40.7976 1379.33 31.1712 1357.78 31.1712 1355.03 38.0472 1349.99 44.0064 1345.86 44.9232 1341.74 41.256 1328.44 38.5056 1319.73 32.5464 1308.73 27.9624 1304.15 16.044 1293.6 11.46 1271.14 18.336 1258.31 23.3784 1249.14 22.4616 1245.47 14.2104 1234.01 0 1213.84 2.292 1195.97 17.4192 1211.09 27.504 1221.18 29.796 1209.72 30.2544 1148.75 30.7128 1113.45 33.0048 1084.12 35.7552 1079.07 40.3392 1071.74 40.7976 1071.28 41.256 1078.16 41.256 1086.87 59.1336 1101.08 65.0928 1097.41 71.5104 1093.28 69.2184 1086.41 61.884 1089.16 53.6328 1092.37 52.716 1081.37 60.0504 1074.03 63.2592 1070.82 64.176 1063.49 62.3424 1056.61 59.1336 1044.69 58.6752 1044.69 48.132 1051.57 41.7144 1055.7 36.672 1057.53 36.2136 1055.7 34.38 1038.28 38.964 999.771 46.2984 969.974 51.3408 950.263 54.5496 931.469 53.1744 928.26 52.2576 925.051 54.0912 916.8 57.7584 909.924 61.4256 903.048 64.176 888.838 64.176 878.294 64.176 852.166 70.1352 844.373 77.928 859.5 82.9704 868.668 87.096 870.96 98.0976 870.043 111.85 868.668 112.308 869.585 110.933 884.254 108.641 904.423 117.35 899.381 123.768 876.461 130.186 852.624 129.727 848.04 120.559 851.249 114.142 853.541 114.6 851.707 122.851 842.539 134.77 829.246 135.686 824.203 125.602 828.329 119.642 830.621 118.726 829.246 121.476 820.078 126.518 804.492 132.019 798.533 143.479 796.699 150.355 795.782 154.022 791.657 154.939 783.864 155.856 777.446 158.606 770.57 160.898 768.278 163.19 765.528 165.024 759.11 165.024 753.151 165.024 747.65 169.608 738.941 174.65 733.898 182.443 726.564 183.818 721.522 181.526 710.062 180.151 702.269 180.61 693.101 182.902 690.35 184.735 687.6 188.402 677.057 190.236 667.43 192.986 650.928 192.528 650.011 186.11 655.512 181.985 658.721 177.401 660.096 176.026 658.721 171.9 655.054 178.776 610.13 183.818 606.922 186.11 605.546 187.944 600.962 187.944 596.837 187.944 587.669 159.523 613.798 146.23 634.884 132.936 655.512 135.686 646.344 155.398 601.879 184.277 535.87 184.277 535.87 190.236 540.912 194.362 544.579 196.654 543.662 198.946 538.62 200.321 534.953 206.738 531.744 212.698 531.744 220.949 531.744 226.45 527.618 231.492 517.534 239.743 501.948 237.451 495.53 226.908 504.24 221.407 508.824 220.032 508.824 220.032 503.782 220.032 500.114 214.99 502.865 208.572 510.199 192.07 528.994 194.362 519.367 214.99 485.904 233.326 454.733 243.869 446.023 239.743 463.901 237.91 474.444 237.91 474.444 245.244 465.276 249.37 460.234 251.662 452.441 250.286 448.315 249.37 443.731 250.286 438.689 252.578 437.314 254.87 435.938 256.704 437.314 256.704 439.606 256.704 442.356 263.58 444.648 272.29 444.648 294.293 444.648 296.585 451.524 280.999 470.777 260.371 496.906 251.203 513.408 258.079 513.408 261.288 513.408 267.706 506.532 272.748 498.739 277.332 490.488 282.374 482.695 283.75 481.32 285.125 479.945 292.459 470.777 299.794 460.692 307.128 450.607 319.505 434.563 327.298 425.395 335.09 416.227 346.55 402.017 352.968 393.766 369.929 371.304 444.19 298.877 464.359 285.583 473.527 279.166 481.32 270.456 481.32 265.872 481.32 261.746 485.904 253.954 491.405 248.911 515.242 227.366 621.132 155.856 629.383 155.856 638.093 155.856 638.093 156.314 631.217 164.107 621.132 175.109 621.59 178.776 632.134 178.776 637.176 178.776 641.76 181.068 642.677 184.277 644.052 187.944 653.22 184.735 669.722 175.567 727.939 143.021 771.946 123.768 796.699 120.559 832.913 115.058 797.616 146.688 744.442 167.316 704.102 182.902 697.685 187.027 704.102 193.445 706.394 195.737 743.066 183.36 760.027 174.65 764.153 172.358 776.071 166.858 786.156 162.732 796.241 158.606 812.285 151.272 821.453 146.23 831.079 141.187 840.706 137.978 843.456 139.812 845.748 141.187 851.249 140.27 855.833 137.978 876.461 126.518 907.632 115.517 909.924 119.184 912.674 123.31 940.178 114.6 950.263 105.89 954.847 102.223 962.64 101.306 971.808 103.14 982.351 105.432 985.56 104.515 985.56 99.0144 985.56 89.388 1017.65 79.7616 1029.57 86.1792 1034.15 88.4712 1042.4 88.9296 1047.44 87.096 1054.78 84.804 1053.4 83.4288 1041.03 81.1368 1032.32 79.3032 1019.94 77.928 1012.61 77.928 1005.27 77.928 999.312 76.0944 999.312 73.344 999.312 71.052 1010.31 68.76 1023.61 68.76 1036.9 68.76 1049.74 66.9264 1052.49 64.176 1054.78 61.884 1062.57 59.1336 1069.45 58.6752 1076.32 58.2168 1081.82 56.3832 1081.82 54.5496 1081.82 42.1728 971.808 47.6736 888.379 64.6344 836.58 74.7192 812.285 75.636 843.456 66.0096 879.67 54.5496 943.846 45.3816 1016.27 41.256 1055.24 38.964 1088.24 36.2136 1089.62 35.2968 1092.37 32.088 1035.07 24.7536 1000.69 23.3784 994.728 22.92 990.144 21.0864 990.144 18.336 990.144 15.5856 1029.11 13.752 1097.87 13.752 1158.84 13.752 1205.59 15.5856 1205.59 17.8776 1205.59 20.1696 1212.01 24.2952 1219.34 27.0456 1227.14 29.3376 1233.1 34.8384 1233.1 38.5056 1233.1 46.7568 1239.97 48.5904 1280.31 52.716 1306.44 55.4664 1313.32 54.5496 1320.65 47.6736 1331.19 38.0472 1367.41 41.256 1406.37 55.4664 1421.04 60.5088 1441.67 66.468 1453.13 68.3016 1464.59 70.1352 1480.17 74.7192 1487.51 78.8448 1495.3 82.9704 1508.59 87.5544 1517.3 89.388 1570.48 100.848 1700.66 147.146 1734.59 167.316 1745.13 173.734 1757.96 178.776 1763.01 178.776 1768.05 178.776 1775.38 182.443 1779.05 187.027 1783.18 191.153 1792.8 198.487 1801.05 202.613 1810.68 208.114 1816.18 214.99 1818.01 224.158 1820.31 234.242 1827.18 242.035 1843.23 252.578 1855.6 260.371 1865.69 268.622 1865.69 270.914 1865.69 273.206 1864.77 275.04 1863.85 275.04 1860.65 275.04 1817.56 250.745 1815.26 247.536 1811.6 242.494 1750.63 208.572 1734.13 203.071 1726.33 200.321 1718.54 198.946 1717.17 200.321 1715.79 202.154 1714.42 200.321 1714.42 196.654 1714.42 192.528 1708.46 184.277 1701.58 177.401 1690.12 166.399 1685.54 165.024 1654.37 165.024 1630.99 165.024 1617.24 162.732 1609.9 157.69 1604.4 154.022 1597.07 152.189 1593.86 154.481 1591.11 156.314 1582.86 157.231 1575.98 156.314 1568.64 155.856 1563.14 157.231 1563.14 159.982 1563.14 162.732 1566.81 165.482 1571.4 165.482 1575.52 165.941 1570.02 167.774 1558.56 170.066 1547.1 172.358 1497.59 172.817 1448.54 170.983 1333.94 167.774 1297.73 172.358 1168.92 207.197 1009.4 249.828 987.394 253.495 834.288 258.996 755.443 261.746 738.024 264.497 697.685 280.541 649.553 299.335 656.429 322.714 715.104 341.508 735.732 347.926 756.36 352.968 761.402 352.968 778.822 352.968 769.654 343.8 744.9 336.924 690.35 320.88 715.104 313.546 804.034 319.046 885.17 324.089 994.728 323.172 1037.82 316.296 1055.7 313.546 1106.58 303.461 1150.58 293.834 1194.59 283.75 1244.1 273.665 1260.6 270.914 1293.6 265.872 1614.03 263.58 1630.99 268.622 1639.24 270.914 1640.61 269.998 1638.32 264.038 1636.49 258.996 1637.86 256.704 1643.82 256.704 1663.08 256.704 1689.2 245.702 1701.12 233.326L1713.04 220.49 1751.55 239.743C1788.68 258.079 1840.48 292.918 1874.86 322.255 1908.78 351.134 1952.78 394.682 1952.78 399.266 1952.78 405.226 1948.66 402.017 1916.57 372.679 1905.11 362.136 1890.44 350.676 1884.48 347.467 1878.52 344.258 1867.52 336.007 1859.73 329.131 1852.39 321.797 1844.14 316.296 1840.93 316.296 1838.18 316.296 1822.6 305.753 1806.55 293.376 1790.51 280.541 1775.38 270.456 1772.17 270.456 1769.42 270.456 1773.09 275.04 1779.97 280.541 1789.14 286.958 1791.43 291.084 1787.76 293.376 1779.51 298.418 1785.93 306.211 1813.43 323.63 1826.72 332.34 1840.02 343.342 1842.77 348.384 1849.19 360.302 1882.19 381.389 1892.28 380.014 1906.03 378.18 1916.57 385.514 1913.82 394.224 1911.07 403.392 1940.87 437.772 1948.2 433.188 1950.03 431.813 1957.37 434.105 1964.7 437.772 1979.83 445.565 1987.62 442.356 1979.83 431.813 1977.08 427.229 1980.29 429.979 1986.71 437.314 1993.58 444.648 1998.17 453.358 1996.79 457.025 1995.42 460.692 1994.04 467.11 1994.04 471.235 1994.04 476.736 1989.91 473.986 1980.75 462.984 1973.41 454.274 1965.62 448.315 1964.24 450.149 1962.41 451.982 1970.66 464.818 1982.12 479.028 1993.58 493.238 2003.21 509.741 2003.21 515.7 2003.21 522.118 2006.42 527.16 2012.38 528.535 2017.42 529.91 2023.38 535.87 2025.67 541.829 2027.96 547.33 2040.34 568.416 2053.17 587.669 2066.01 607.38 2080.68 631.675 2085.72 642.218 2096.72 663.763 2095.35 678.432 2084.34 657.804 2071.51 633.967 2076.09 653.22 2093.05 693.559 2105.43 723.814 2110.93 732.065 2116.89 730.231 2121.93 728.856 2127.43 733.44 2132.94 742.15 2137.52 749.942 2143.02 756.36 2144.85 756.36 2147.15 756.36 2149.9 759.11 2151.27 762.778 2153.1 767.362 2150.81 769.195 2144.4 768.737 2139.35 768.278 2133.39 763.236 2131.1 757.735 2128.81 751.776 2123.77 747.192 2120.1 747.192 2108.64 747.192 2106.81 760.486 2116.89 771.487 2121.93 776.988 2128.35 787.073 2131.1 794.407 2138.44 813.202 2146.23 809.993 2142.56 789.823 2139.81 774.696 2140.27 773.321 2146.23 777.905 2149.9 781.114 2154.48 782.489 2155.86 780.655 2161.36 775.154 2159.06 757.735 2152.19 751.776 2148.06 748.109 2146.23 742.15 2148.06 737.107 2149.9 730.69 2148.06 727.481 2141.65 725.647 2129.27 722.438 2125.6 713.729 2124.68 683.016L2123.31 657.804 2132.48 669.264C2138.44 677.057 2140.73 684.391 2138.89 693.101 2137.06 701.81 2138.44 705.936 2142.56 705.936 2145.77 705.936 2152.19 713.27 2157.23 721.98L2165.48 738.024 2178.32 723.355C2189.32 710.062 2191.61 709.145 2197.11 715.104 2204.9 723.355 2238.83 821.911 2246.16 857.208 2249.37 870.96 2253.49 885.629 2255.33 889.754 2257.62 893.88 2260.37 909.007 2262.2 924.134 2264.04 938.803 2266.33 955.306 2267.71 960.348 2272.29 983.727 2274.12 1057.99 2270 1060.74 2267.25 1062.11 2264.04 1052.03 2262.2 1034.61 2258.08 991.061 2255.33 980.976 2247.99 980.976 2241.58 980.976 2239.74 993.811 2241.12 1029.11 2242.03 1041.48 2245.24 1050.19 2252.12 1055.7 2259.91 1062.11 2260.37 1063.49 2254.41 1061.65 2245.24 1058.9 2244.33 1063.49 2248.91 1097.41 2253.04 1125.83 2264.5 1126.75 2264.5 1097.87 2264.5 1086.41 2266.79 1077.24 2269.08 1077.24 2274.58 1077.24 2275.04 1081.37 2273.66 1111.62 2273.21 1124.46 2270.46 1137.29 2267.71 1140.5 2264.5 1144.62 2264.5 1147.83 2267.71 1149.67 2275.5 1155.17 2279.17 1201.92 2273.66 1235.85 2270.91 1253.27 2262.2 1287.19 2254.41 1311.02 2247.08 1334.86 2239.74 1357.32 2238.83 1360.53 2237.91 1363.28 2235.16 1366.03 2232.87 1366.03 2227.82 1366.03 2229.2 1355.49 2241.58 1288.1 2250.74 1240.43 2247.08 1218.43 2235.62 1246.85 2231.95 1255.56 2227.37 1270.23 2225.53 1278.94 2219.11 1310.57 2214.53 1309.65 2213.61 1276.64L2213.16 1244.56 2205.82 1272.06C2200.78 1290.4 2197.57 1296.36 2196.65 1289.48 2195.74 1283.06 2192.07 1278.94 2187.03 1278.94 2180.15 1278.94 2175.57 1289.48 2164.11 1333.03 2155.86 1362.36 2143.48 1402.7 2136.14 1422.42L2123.31 1458.17 2132.48 1466.88C2141.65 1475.13 2141.65 1476.51 2134.31 1494.38 2126.06 1515.01 2124.68 1523.72 2132.02 1511.8 2134.31 1507.22 2139.81 1503.55 2143.02 1503.55 2151.27 1503.55 2151.73 1514.1 2144.85 1527.39 2141.65 1532.89 2141.65 1538.39 2143.94 1540.68 2149.9 1546.64 2172.82 1503.09 2172.82 1486.13 2172.82 1471.01 2181.53 1460.46 2182.44 1474.67 2182.44 1479.26 2187.49 1471.92 2193.9 1459.09 2199.86 1445.79 2205.82 1434.79 2207.2 1434.79 2210.41 1434.79 2205.82 1455.42 2198.49 1476.05 2187.03 1505.84 2172.82 1556.73 2172.82 1566.35 2172.82 1571.85 2168.69 1585.61 2163.65 1597.52 2154.02 1620.44 2151.73 1631.9 2158.61 1625.03 2160.9 1622.28 2176.48 1595.69 2192.99 1565.44 2241.58 1476.51 2235.62 1528.31 2185.65 1628.7 2173.73 1652.99 2159.06 1673.16 2140.73 1691.5 2125.6 1706.16 2113.22 1721.29 2113.22 1724.96 2113.22 1728.63 2104.97 1738.71 2094.89 1746.5 2074.26 1763.01 2071.97 1761.63 2086.64 1741.92 2104.51 1717.62 2091.22 1721.75 2064.63 1748.34 2050.42 1762.55 2037.13 1774.01 2035.3 1774.01 2033 1774.01 2028.42 1779.51 2025.21 1786.39 2018.79 1799.22 1991.75 1810.22 1984.41 1802.89 1982.12 1800.6 1988.54 1788.68 1999.08 1776.76 2012.83 1759.8 2016.04 1753.38 2011.46 1750.63 2002.29 1744.67 2000.92 1745.13 1980.29 1765.3 1963.33 1781.8 1959.2 1783.63 1952.33 1779.05 1939.49 1771.26 1927.57 1773.09 1918.4 1783.18 1912.44 1789.59 1908.32 1790.97 1905.11 1787.76 1902.82 1785.47 1896.86 1783.18 1892.73 1783.18 1888.15 1783.18 1884.02 1780.88 1883.11 1778.13 1880.36 1770.34 1862.48 1780.88 1841.39 1801.97 1814.35 1829.93 1811.6 1823.06 1837.73 1794.18 1851.02 1779.97 1860.19 1767.13 1859.27 1765.76 1855.6 1762.55 1811.6 1802.43 1811.14 1809.76 1810.68 1812.51 1808.39 1815.26 1806.1 1815.26 1803.35 1815.26 1791.43 1824.43 1779.51 1834.98 1767.59 1845.98 1747.88 1862.02 1735.04 1870.27 1698.83 1894.57 1691.5 1902.36 1694.25 1914.74 1696.08 1921.15 1695.16 1925.28 1691.5 1925.28 1688.75 1925.28 1687.83 1927.11 1689.2 1929.86 1690.58 1932.16 1702.04 1926.66 1714.42 1917.95 1727.25 1908.78 1737.34 1903.28 1737.34 1905.57 1737.34 1912.9 1703.41 1941.32 1697 1939.95 1693.33 1939.03 1689.66 1942.24 1688.75 1946.82 1686.45 1955.53 1672.24 1963.33 1648.86 1968.37 1641.53 1970.2 1634.65 1975.7 1632.36 1982.12 1628.7 1991.29 1609.44 2007.79 1602.11 2007.79 1600.73 2007.79 1599.82 1999.54 1599.82 1989.46 1599.82 1974.33 1601.65 1970.2 1610.36 1966.99 1615.86 1964.7 1622.74 1964.24 1625.94 1965.16 1628.7 1966.54 1638.78 1963.79 1647.95 1959.66 1659.87 1953.7 1663.53 1949.58 1661.7 1943.62 1658.95 1935.36 1670.41 1927.57 1677.74 1932.16 1681.41 1934.45 1687.83 1915.65 1684.62 1912.44 1682.33 1910.15 1639.7 1934.45 1618.61 1950.03 1609.9 1956.45 1601.19 1961.95 1599.36 1961.95 1592.48 1961.95 1594.77 1632.82 1602.57 1523.26 1611.73 1388.95 1609.9 1237.68 1598.44 1202.38 1593.86 1189.55 1584.69 1172.59 1577.35 1164.79 1565.89 1152.42 1560.85 1150.58 1541.14 1150.58 1520.05 1150.58 1516.85 1151.96 1487.97 1178.55 1471.01 1194.13 1454.5 1213.38 1450.84 1221.64 1447.63 1230.35 1439.83 1239.51 1433.88 1242.72 1410.96 1254.64 1336.69 1330.28 1339.44 1338.53 1340.36 1341.74 1345.4 1340.36 1352.74 1334.4 1374.28 1317.44 1473.76 1265.64 1490.72 1262.89 1504.93 1260.14 1508.14 1261.06 1514.55 1271.14 1525.56 1287.65 1527.85 1341.74 1522.35 1448.54 1519.6 1500.34 1515.47 1633.28 1512.26 1744.21 1509.05 1875.77 1505.39 1949.58 1502.18 1956.45 1499.43 1962.41 1489.34 1970.66 1479.72 1974.33 1470.09 1978 1462.3 1983.04 1462.3 1984.87 1462.3 1993.58 1471.92 1993.58 1486.13 1984.87 1494.38 1979.83 1502.64 1975.7 1504.93 1975.7 1506.76 1975.7 1508.14 1989 1508.14 2005.5 1508.14 2031.63 1506.76 2037.13 1496.68 2046.76 1483.84 2060.05 1477.42 2060.97 1462.75 2050.88 1449.92 2041.71 1441.67 2048.13 1446.25 2062.8 1450.84 2077.47 1475.13 2090.3 1499.43 2090.3 1536.1 2090.3 1595.23 2053.63 1595.23 2031.17 1595.23 2028.42 1597.52 2026.13 1599.82 2026.13 1602.57 2026.13 1608.98 2021.09 1614.48 2014.67 1619.99 2008.25 1628.7 2003.21 1633.74 2003.21 1646.11 2003.21 1669.03 1989 1699.29 1963.33 1712.58 1951.87 1725.42 1944.07 1727.71 1945.91 1730.46 1947.28 1741.46 1940.41 1752.46 1929.86 1763.46 1919.78 1776.3 1911.53 1780.43 1911.53 1784.55 1911.53 1787.76 1908.78 1787.76 1905.11 1787.76 1895.94 1821.68 1859.27 1828.1 1861.56 1832.22 1862.94 1831.77 1866.15 1825.35 1872.56 1820.77 1877.61 1814.81 1885.4 1812.51 1889.53 1810.22 1894.11 1796.93 1906.94 1783.18 1918.86 1769.42 1930.78 1756.59 1943.16 1755.21 1947.28 1753.84 1950.95 1748.8 1954.62 1743.75 1955.08 1738.71 1955.53 1715.79 1967.91 1692.41 1983.04 1655.74 2006.42 1650.24 2011.46 1652.53 2020.63 1654.37 2028.88 1652.07 2032.09 1637.86 2038.96 1620.9 2046.76 1602.11 2064.18 1608.07 2066.47 1614.48 2068.76 1701.58 2019.71 1720.38 2003.21 1730.92 1994.04 1747.88 1982.58 1757.96 1978 1768.05 1973.41 1788.22 1961.49 1802.89 1951.41 1817.56 1941.78 1830.85 1934.91 1832.22 1936.28 1836.81 1940.87 1814.35 1966.54 1793.26 1981.2 1768.05 1998.17 1763.46 2004.12 1770.8 2008.71 1777.22 2012.38 1759.34 2033 1741.46 2042.63 1730 2048.59 1729.08 2048.13 1731.38 2039.88 1734.59 2027.5 1724.5 2031.17 1689.2 2055.92 1674.08 2066.47 1651.62 2081.14 1639.7 2088.01 1627.78 2094.89 1618.61 2101.31 1619.53 2102.22 1622.28 2105.43 1654.82 2090.76 1669.03 2080.22 1683.7 2069.22 1690.12 2071.05 1682.79 2084.8 1679.58 2090.76 1679.58 2094.89 1683.24 2098.56 1685.54 2100.85 1686.45 2105.43 1685.08 2107.72 1678.66 2118.27 1554.89 2174.19 1511.34 2186.57 1485.67 2193.9 1452.21 2205.36 1437.08 2211.32 1421.96 2217.74 1400.87 2223.24 1390.79 2223.24 1380.24 2223.24 1364.66 2225.99 1356.41 2229.66 1332.57 2239.28 1156.54 2254.87 1149.21 2247.99ZM1102.45 2223.24C1101.08 2220.95 1095.12 2218.66 1089.62 2218.66 1081.37 2218.66 1080.91 2219.57 1086.41 2223.24 1095.58 2229.2 1106.12 2229.2 1102.45 2223.24ZM987.852 2209.49C966.766 2199.86 956.222 2198.03 960.348 2205.36 964.932 2211.78 980.976 2218.2 994.728 2218.2 1004.35 2218.2 1003.44 2216.82 987.852 2209.49ZM1448.54 2188.4C1448.54 2187.49 1445.34 2186.57 1441.67 2186.57 1438 2186.57 1434.79 2188.4 1434.79 2191.15 1434.79 2193.44 1438 2194.36 1441.67 2192.99 1445.34 2191.15 1448.54 2189.32 1448.54 2188.4ZM1471.46 2184.73C1471.46 2183.36 1469.63 2181.07 1466.88 2179.69 1464.59 2178.32 1462.3 2179.23 1462.3 2181.53 1462.3 2184.28 1464.59 2186.57 1466.88 2186.57 1469.63 2186.57 1471.46 2185.65 1471.46 2184.73ZM818.702 2175.11C802.2 2166.4 799.45 2166.4 806.784 2175.11 809.993 2178.78 816.869 2181.98 822.37 2181.98 830.621 2181.98 830.162 2181.07 818.702 2175.11ZM781.572 2164.11C778.822 2162.27 771.029 2158.61 763.694 2157.23 751.776 2154.48 750.859 2154.94 755.902 2160.9 759.569 2165.02 767.362 2168.23 773.779 2168.23 780.655 2168.23 783.864 2166.4 781.572 2164.11ZM855.833 2165.48C854.458 2164.11 850.332 2163.65 847.123 2165.02 843.456 2166.4 844.831 2167.77 849.874 2167.77 854.916 2168.23 857.667 2166.86 855.833 2165.48ZM738.024 2152.65C738.024 2146.69 692.184 2126.06 655.512 2115.52 635.342 2109.56 651.386 2121.02 689.892 2140.73 730.231 2160.44 738.024 2162.27 738.024 2152.65ZM632.592 2109.1C632.592 2103.6 614.256 2090.3 606.463 2090.3 596.837 2090.3 599.587 2102.22 611.047 2107.72 623.882 2114.14 632.592 2114.6 632.592 2109.1ZM1030.02 2100.85C1046.99 2093.97 1058.9 2078.84 1058.9 2063.72 1058.9 2055.92 1054.78 2051.34 1041.94 2045.84 1018.11 2036.21 966.307 1984.87 905.798 1911.53 805.409 1789.59 729.773 1707.08 706.394 1694.7 678.89 1679.58 648.636 1677.74 628.008 1689.66 619.757 1694.25 613.798 1699.75 614.714 1701.12 615.631 1702.96 612.422 1708.46 607.838 1713.96L599.129 1723.58 617.465 1723.58C630.758 1723.58 640.385 1727.25 651.386 1736.42 679.807 1759.34 731.148 1816.64 797.158 1898.69 832.913 1943.16 880.128 1999.08 902.131 2022.92 924.134 2046.76 951.18 2076.55 963.099 2089.85 982.351 2111.85 984.643 2113.22 999.771 2110.02 1008.02 2108.64 1021.77 2104.51 1030.02 2100.85ZM1428.83 2110.47C1427.46 2109.1 1423.33 2108.64 1420.12 2110.02 1416.46 2111.39 1417.83 2112.77 1422.87 2112.77 1427.92 2113.22 1430.67 2111.85 1428.83 2110.47ZM595.92 2086.18C595.92 2080.68 571.166 2062.8 564.29 2062.8 561.54 2062.8 538.162 2044.01 512.95 2021.09 487.279 1998.62 465.276 1980.75 463.901 1982.58 462.526 1983.96 467.568 1990.83 475.819 1997.71 483.612 2004.58 490.488 2014.21 491.405 2019.25 492.322 2024.75 496.906 2028.88 503.323 2029.8 509.741 2030.71 514.325 2035.75 516.158 2042.63 517.992 2049.51 522.118 2053.63 527.618 2053.63 532.661 2053.63 546.871 2061.88 559.706 2071.97 582.168 2089.85 595.92 2094.89 595.92 2086.18ZM1158.38 2019.25C1206.51 2005.04 1242.26 1971.58 1242.26 1940.87 1242.26 1917.95 1236.3 1916.11 1186.34 1924.36 1143.25 1931.24 1140.5 1931.24 1106.58 1921.61 1054.32 1907.4 1050.65 1913.82 1094.66 1941.78 1136.37 1968.37 1136.83 1967.45 1077.7 1989 1056.61 1996.79 1036.44 2005.5 1033.23 2008.25 1024.52 2015.58 1024.98 2024.75 1035.07 2027.96 1048.82 2032.09 1135 2026.13 1158.38 2019.25ZM417.144 1979.37C417.144 1972.95 394.224 1948.2 388.723 1948.2 380.93 1948.2 385.514 1962.87 396.516 1973.41 408.434 1985.79 417.144 1988.08 417.144 1979.37ZM418.519 1928.03C405.684 1911.99 394.224 1904.19 394.224 1910.61 394.224 1916.11 422.186 1943.62 427.229 1943.62 429.979 1943.62 425.854 1936.74 418.519 1928.03ZM1026.36 1910.61C1040.57 1906.94 1048.82 1901.44 1054.78 1891.36 1072.66 1862.02 1067.16 1856.98 1003.9 1843.23 982.351 1838.64 961.265 1833.14 957.139 1831.31 943.846 1825.81 947.513 1836.35 963.557 1850.1 977.767 1861.56 978.226 1862.48 969.974 1867.52 958.056 1874.4 939.72 1891.82 939.72 1896.4 940.178 1917.95 975.017 1923.91 1026.36 1910.61ZM1668.12 1885.4C1673.62 1878.98 1676.83 1872.56 1675.45 1871.19 1671.78 1867.52 1650.24 1884.02 1650.24 1890.9 1650.24 1901.44 1657.57 1899.15 1668.12 1885.4ZM1741 1841.85C1753.84 1831.77 1764.84 1821.68 1764.84 1819.39 1764.84 1811.14 1751.55 1815.72 1732.29 1831.31 1721.29 1840.02 1708.92 1847.35 1704.79 1847.35 1700.66 1847.35 1693.79 1851.48 1689.2 1856.52 1681.41 1864.77 1681.41 1865.69 1688.29 1862.94 1692.87 1861.56 1696.08 1862.48 1696.08 1865.23 1696.08 1872.56 1709.83 1865.23 1741 1841.85ZM342.883 1839.56C337.841 1827.64 309.42 1792.8 308.045 1796.47 306.211 1802.43 333.715 1842.77 339.674 1842.77 342.425 1842.77 343.8 1841.39 342.883 1839.56ZM1156.54 1805.18C1203.76 1785.01 1212.01 1755.67 1185.42 1698.83 1173.5 1672.7 1165.71 1662.16 1150.13 1651.62 1139.12 1643.82 1125.83 1633.28 1121.25 1627.78 1116.2 1622.74 1109.79 1618.15 1106.58 1618.15 1103.37 1618.15 1092.37 1608.07 1081.82 1595.23 1071.28 1582.86 1060.74 1572.31 1058.45 1572.31 1056.15 1572.31 1046.53 1564.06 1037.36 1553.52 1002.06 1514.55 958.056 1495.76 894.339 1493.01 878.753 1492.09 877.836 1491.18 854.458 1441.21L830.621 1389.87 850.332 1379.78C865.918 1371.99 873.71 1363.28 884.712 1342.65 892.505 1327.98 900.756 1314.69 902.59 1313.77 904.882 1312.4 907.632 1320.65 909.007 1332.11 911.299 1352.74 914.508 1360.53 919.092 1355.95 920.926 1354.57 922.759 1330.74 924.134 1303.69 925.51 1276.19 929.635 1244.56 933.302 1233.55 942.47 1204.22 941.554 1192.3 929.635 1187.71 917.717 1183.13 909.924 1186.34 881.503 1207.43 857.208 1225.3 837.955 1266.1 826.954 1321.57 817.786 1368.32 820.078 1369.24 782.03 1307.82 749.484 1256.02 720.605 1228.97 682.099 1214.76 666.055 1208.8 644.51 1199.17 633.509 1192.76 622.507 1186.8 612.422 1182.67 611.047 1184.51 609.672 1185.88 617.923 1198.26 629.842 1212.01 683.016 1274.35 759.569 1410.5 804.034 1522.35 828.329 1583.77 829.704 1593.86 813.66 1599.82 798.991 1605.32 798.991 1610.36 814.118 1622.28 832.454 1636.95 853.082 1638.78 876.461 1628.24 905.34 1615.4 911.758 1599.36 901.214 1562.23 897.089 1547.1 894.339 1533.81 895.255 1532.89 897.547 1530.6 960.806 1561.31 990.144 1579.19 1023.61 1599.36 1038.73 1603.02 1049.28 1593.4 1057.53 1586.06 1058.45 1586.52 1064.86 1605.32 1079.53 1646.57 1104.74 1735.96 1107.49 1755.67 1111.16 1783.63 1103.83 1790.05 1071.28 1786.39 1037.36 1783.18 1002.52 1769.42 958.514 1742.38 911.758 1713.96 898.006 1709.37 847.582 1706.62 798.533 1703.41 772.404 1710.29 779.28 1724.04 782.03 1728.63 786.614 1732.75 789.823 1732.75 793.032 1732.75 812.743 1740.09 834.288 1749.25 994.27 1816.18 1090.53 1832.68 1156.54 1805.18ZM1809.3 1785.47C1836.35 1757.96 1843.68 1746.5 1834.06 1746.5 1831.77 1746.5 1821.68 1754.76 1811.14 1764.84 1801.05 1774.92 1790.51 1783.18 1788.22 1783.18 1786.39 1783.18 1779.05 1787.3 1772.17 1792.8 1762.55 1800.6 1761.17 1803.8 1765.3 1808.85 1774.01 1819.39 1778.59 1816.64 1809.3 1785.47ZM276.415 1792.34C273.665 1781.8 262.205 1771.26 258.079 1775.38 254.87 1779.05 269.081 1801.51 274.582 1801.51 276.874 1801.51 277.79 1797.39 276.415 1792.34ZM290.626 1771.72C288.792 1768.05 286.042 1766.22 283.75 1767.59 278.707 1770.34 282.833 1778.59 288.792 1778.59 291.084 1778.59 292.001 1775.38 290.626 1771.72ZM1302.31 1752.46C1309.65 1747.88 1321.11 1734.13 1327.07 1721.75L1338.53 1698.83 1350.9 1727.25C1365.12 1760.26 1373.37 1764.84 1368.32 1736.42 1366.49 1725.42 1364.2 1710.29 1363.74 1702.5 1362.82 1694.7 1357.32 1674.08 1350.9 1656.66 1344.49 1639.24 1334.86 1604.4 1329.82 1579.65 1324.32 1554.43 1318.82 1532.43 1317.44 1530.14 1306.9 1513.64 1264.73 1548.48 1256.02 1581.02 1251.89 1597.07 1251.89 1608.98 1257.39 1638.32 1264.27 1678.2 1284.44 1760.26 1287.19 1760.26 1288.1 1760.26 1294.98 1756.59 1302.31 1752.46ZM1962.41 1745.59C1972.5 1733.21 1973.41 1728.17 1965.16 1728.17 1961.95 1728.17 1956.91 1734.59 1954.16 1741.92 1948.2 1758.42 1950.49 1759.34 1962.41 1745.59ZM1025.9 1690.58C1049.74 1670.87 982.351 1635.11 935.594 1642.91 917.258 1645.66 898.464 1661.7 905.34 1668.12 912.674 1674.99 958.973 1691.95 980.976 1696.08 1002.52 1699.75 1016.27 1697.91 1025.9 1690.58ZM192.528 1650.24C192.528 1647.95 195.737 1645.66 199.404 1645.66 203.071 1645.66 206.28 1643.82 206.28 1641.07 206.28 1635.11 200.779 1635.11 186.11 1641.07 171.9 1646.11 170.525 1654.82 183.36 1654.82 188.402 1654.82 192.528 1652.99 192.528 1650.24ZM2122.39 1498.97C2127.89 1488.42 2127.89 1487.97 2121.02 1493.93 2116.43 1497.13 2113.22 1503.09 2113.22 1507.22 2113.22 1515.47 2114.6 1514.55 2122.39 1498.97ZM1126.75 1452.21C1151.96 1440.29 1168.92 1416 1168.92 1390.79 1168.92 1367.87 1156.54 1342.65 1120.79 1292.69 1087.32 1246.39 1072.2 1238.14 1023.61 1237.68 995.645 1237.68 988.31 1239.51 980.518 1247.31 969.058 1258.77 972.725 1264.73 1002.52 1282.14 1013.52 1288.56 1029.57 1301.86 1037.82 1311.94 1058.45 1336.24 1097.87 1413.25 1094.2 1422.87 1089.16 1435.71 1057.53 1431.58 1009.4 1412.33 925.051 1378.87 897.089 1378.87 934.678 1412.33 988.31 1460 1072.2 1477.42 1126.75 1452.21ZM2076.09 1448.54C2076.09 1443.96 2074.72 1444.88 2071.97 1450.84 2066.47 1463.21 2066.47 1470.55 2071.97 1462.3 2074.26 1458.63 2076.09 1452.21 2076.09 1448.54ZM2110.02 1442.58C2106.35 1437.08 2094.89 1451.75 2094.89 1461.84 2095.35 1467.34 2097.64 1466.42 2104.06 1458.17 2109.1 1452.67 2111.85 1445.34 2110.02 1442.58ZM2122.39 1416C2122.39 1413.25 2120.56 1412.79 2117.81 1414.16 2115.52 1415.54 2113.22 1419.21 2113.22 1421.5 2113.22 1424.25 2115.52 1424.71 2117.81 1423.33 2120.56 1421.96 2122.39 1418.29 2122.39 1416ZM2143.02 1338.07C2147.15 1324.32 2154.02 1284.9 2159.06 1250.06 2170.52 1166.17 2171.9 1159.75 2181.07 1159.75 2186.11 1159.75 2188.86 1156.08 2188.86 1149.67 2189.32 1143.71 2190.69 1129.04 2192.53 1116.2 2195.28 1095.58 2194.82 1094.2 2188.86 1101.99 2185.19 1107.04 2181.98 1116.66 2181.98 1124 2181.98 1145.08 2172.82 1138.67 2172.36 1117.58 2171.9 1089.16 2169.61 1100.16 2163.65 1160.67 2160.44 1190.46 2156.31 1213.38 2154.48 1212.47 2148.06 1208.34 2143.94 1219.8 2149.44 1225.3 2157.23 1233.1 2155.4 1258.31 2144.85 1294.06 2133.85 1331.65 2126.52 1372.91 2132.02 1367.41 2134.31 1365.12 2139.35 1351.82 2143.02 1338.07ZM1271.14 1163.42C1281.69 1160.21 1298.65 1149.21 1309.19 1139.12L1328.44 1120.79 1326.61 1058.9C1325.23 1024.98 1323.86 987.394 1322.94 975.475 1322.03 963.099 1322.94 953.472 1324.78 953.472 1326.61 953.472 1337.15 956.681 1347.7 960.348 1380.24 971.808 1395.37 969.516 1416.46 949.805 1436.63 930.552 1440.75 910.841 1427 903.965 1422.42 901.673 1403.16 897.547 1384.37 894.339 1365.57 891.13 1343.57 886.546 1335.32 884.254 1319.28 879.211 1318.82 877.836 1313.32 823.286 1311.48 804.034 1305.52 787.073 1293.6 765.07 1284.44 748.109 1278.02 732.982 1279.39 731.606 1280.77 730.231 1300.94 733.44 1324.78 738.024 1348.61 743.066 1389.41 749.026 1414.62 751.318 1440.29 753.61 1465.5 757.735 1471.01 760.944 1490.72 771.029 1553.06 743.983 1565.44 719.688 1573.69 703.186 1573.69 703.644 1565.44 694.934 1559.48 689.434 1548.93 688.517 1502.18 690.809 1381.16 696.31 1286.73 678.432 1125.37 618.84 1105.66 611.506 1087.32 608.755 1061.2 608.297 1016.27 608.297 971.808 617.006 971.808 626.174 971.808 629.842 976.392 632.592 982.351 632.592 987.852 632.592 1019.48 642.218 1052.03 653.678 1085.03 665.138 1143.71 685.308 1182.67 698.143 1221.64 710.978 1254.18 721.98 1255.1 722.438 1257.39 723.814 1248.68 852.166 1245.93 854.916 1244.56 856.291 1234.01 855.374 1222.55 852.624 1206.05 848.04 1196.88 848.498 1173.5 854.458 1136.83 864.084 1138.21 864.084 1132.71 846.665 1123.08 817.327 1092.83 777.905 1070.36 765.07 1057.53 757.735 1044.69 745.817 1038.73 735.274 1026.82 714.187 1017.65 710.062 1017.65 725.647 1017.65 743.525 1034.15 808.618 1058.9 889.754 1083.66 969.974 1085.49 980.059 1074.95 983.727 1066.7 986.935 1065.78 997.479 1074.03 1000.69 1084.12 1004.35 1120.79 990.602 1138.67 975.934L1156.08 961.265 1154.25 928.26C1153.33 907.174 1154.25 895.714 1157.46 896.172 1159.75 897.089 1181.76 903.965 1205.59 911.758L1249.14 925.968 1244.56 1033.69C1241.35 1107.95 1238.14 1142.79 1234.47 1146.92 1216.59 1164.34 1236.76 1173.5 1271.14 1163.42ZM2131.56 1150.58C2131.56 1148.29 2130.64 1146 2129.73 1146 2128.35 1146 2126.06 1148.29 2124.68 1150.58 2123.31 1153.33 2124.23 1155.17 2126.52 1155.17 2129.27 1155.17 2131.56 1153.33 2131.56 1150.58ZM2223.7 1085.95C2219.57 1071.28 2219.57 1071.74 2219.11 1096.03 2218.66 1110.24 2220.03 1123.08 2222.32 1124.91 2227.37 1130.41 2228.74 1102.91 2223.7 1085.95ZM860.417 987.394C888.379 969.974 900.756 953.472 896.63 937.428 892.963 923.676 871.418 912.216 847.123 911.758 829.246 911.758 795.324 888.379 780.655 866.376 762.319 840.247 763.236 862.25 781.572 895.714 790.74 912.216 797.616 928.26 796.699 931.469 795.324 934.678 780.197 944.304 762.778 953.472 722.438 973.642 720.605 984.185 754.068 996.103 788.448 1008.02 832.913 1004.35 860.417 987.394ZM2145.77 977.767C2141.65 970.433 2141.19 970.433 2140.73 977.309 2140.73 981.435 2142.1 988.769 2143.94 993.353 2147.15 1000.69 2147.6 1001.15 2148.98 993.811 2149.9 989.227 2148.52 982.351 2145.77 977.767ZM80.22 950.263C78.3864 940.637 75.1776 929.635 73.344 925.968 70.1352 920.009 68.76 920.009 66.468 927.343 61.4256 940.178 68.3016 967.224 76.5528 967.224 82.0536 967.224 82.9704 964.015 80.22 950.263ZM2248.45 927.802C2246.16 911.758 2242.95 906.257 2231.95 900.756 2219.11 893.88 2218.66 893.88 2218.66 904.882 2218.66 916.342 2229.2 930.552 2237.91 930.552 2240.66 930.552 2241.58 934.219 2240.2 939.262 2239.28 943.846 2240.2 951.638 2242.95 956.222 2247.99 964.474 2247.99 964.474 2249.83 956.222 2250.74 951.638 2250.29 938.803 2248.45 927.802ZM2202.61 908.09C2200.78 900.298 2197.57 892.963 2195.28 891.13 2191.15 888.838 2192.53 902.59 2198.49 920.926 2202.15 932.844 2205.82 922.301 2202.61 908.09ZM2131.56 875.544C2131.56 873.252 2129.73 870.96 2126.98 870.96 2124.68 870.96 2122.39 873.252 2122.39 875.544 2122.39 878.294 2124.68 880.128 2126.98 880.128 2129.73 880.128 2131.56 878.294 2131.56 875.544ZM2236.99 876.003C2236.99 874.169 2234.7 865.459 2231.95 857.667 2227.82 846.665 2224.62 843.456 2218.2 844.831 2213.61 846.206 2209.03 844.831 2207.65 841.622 2206.74 838.872 2205.36 840.706 2205.36 845.748 2204.9 856.75 2222.32 880.128 2231.03 880.128 2234.24 880.128 2236.99 878.294 2236.99 876.003ZM2186.57 857.208C2186.57 854.916 2184.28 852.624 2181.53 852.624 2179.23 852.624 2178.32 854.916 2179.69 857.208 2181.07 859.958 2183.36 861.792 2184.73 861.792 2185.65 861.792 2186.57 859.958 2186.57 857.208ZM341.05 834.288C348.384 815.952 351.134 793.49 345.634 798.991 343.342 801.283 326.381 845.748 325.464 851.707 325.464 852.166 327.298 852.624 329.59 852.624 331.882 852.624 336.924 844.373 341.05 834.288ZM2209.95 817.327C2213.16 808.618 2213.16 798.533 2209.03 782.947 2203.07 758.194 2194.82 747.192 2181.53 747.192 2170.98 747.192 2169.61 760.027 2180.15 764.153 2183.82 765.528 2186.11 769.654 2184.28 773.779 2182.9 777.446 2187.03 784.781 2193.9 791.198 2203.53 800.366 2204.9 804.951 2202.61 815.952 2198.95 832.913 2203.53 833.83 2209.95 817.327ZM2108.64 803.117C2108.64 801.283 2106.81 797.616 2104.06 794.866 2099.47 790.282 2066.47 696.768 2056.84 661.471 2052.26 644.052 2050.42 642.218 2039.88 644.969 2033.46 646.344 2027.04 650.47 2024.75 653.678 2022.92 656.887 2017.88 658.262 2013.75 656.887 2008.71 655.054 2007.33 655.512 2009.63 659.638 2011.46 662.388 2015.58 664.68 2018.34 664.222 2032.09 662.388 2039.88 665.138 2039.88 671.556 2039.88 675.223 2045.84 688.975 2052.72 702.269 2065.55 726.564 2085.72 774.238 2085.72 780.197 2085.72 790.282 2095.8 806.784 2101.76 806.784 2105.43 806.784 2108.64 804.951 2108.64 803.117ZM2070.59 782.947C2069.22 779.738 2068.3 782.03 2068.3 788.448 2068.3 794.866 2069.22 797.158 2070.59 794.407 2071.51 791.198 2071.51 785.698 2070.59 782.947ZM208.114 778.363C213.156 759.11 210.406 754.068 203.988 769.654 195.737 787.531 195.737 788.448 201.238 788.448 203.53 788.448 206.28 783.864 208.114 778.363ZM180.61 776.53C182.902 770.112 182.443 769.654 176.484 774.696 168.691 781.114 167.774 783.864 173.734 783.864 176.026 783.864 179.234 780.655 180.61 776.53ZM806.784 726.564C828.787 715.104 839.789 694.018 836.58 669.264 825.12 584.002 827.412 567.958 855.374 536.786 866.376 524.41 889.754 505.615 906.257 494.614 942.012 472.61 979.143 438.689 988.31 420.811 999.771 398.808 996.562 385.514 978.684 377.722 963.099 371.304 893.88 368.095 899.839 374.513 901.673 375.888 913.591 381.847 926.885 386.89 965.391 402.475 965.391 402.475 877.836 453.816 781.572 510.658 752.234 552.83 741.233 651.845 736.649 695.393 736.19 696.31 721.063 704.561 703.644 713.729 703.186 723.355 719.688 732.523 734.357 740.316 787.073 736.649 806.784 726.564ZM1980.29 668.806C1980.29 665.597 1976.16 649.553 1971.12 633.05 1960.12 596.837 1948.2 579.418 1937.2 583.543 1929.86 586.294 1930.78 589.502 1942.7 612.881 1950.49 627.55 1960.12 647.261 1964.7 656.887 1972.95 673.39 1980.29 678.89 1980.29 668.806ZM206.28 637.176C206.28 634.884 203.071 632.592 198.946 632.592 195.278 632.592 193.445 634.884 194.82 637.176 196.195 639.926 199.404 641.76 202.154 641.76 204.446 641.76 206.28 639.926 206.28 637.176ZM196.654 607.38C196.654 605.088 193.903 606.922 190.236 611.506 186.569 616.548 183.36 623.882 183.36 627.55 183.818 635.342 196.654 615.631 196.654 607.38ZM1998.62 619.298C1998.62 605.088 2016.04 602.338 2028.88 614.714 2034.84 620.215 2040.8 623.882 2042.17 622.507 2044.92 619.757 2028.88 589.502 2016.96 575.292 2012.83 570.25 2002.75 554.664 1994.96 540.912 1981.66 517.075 1926.66 453.816 1919.32 453.816 1917.49 453.816 1916.11 457.025 1916.11 460.692 1916.11 464.359 1917.95 467.568 1920.24 467.568 1922.53 467.568 1925.28 472.152 1927.11 478.111 1928.49 483.612 1938.12 499.198 1948.66 512.95 1959.2 526.702 1971.58 549.163 1976.16 562.915 1980.75 576.667 1987.16 590.878 1989.91 594.086 1993.58 598.212 1993.58 600.504 1990.37 600.504 1987.62 600.504 1971.58 580.334 1954.62 556.039 1918.86 504.24 1856.52 437.314 1851.48 445.106 1849.19 448.774 1845.06 448.315 1837.73 442.814 1831.77 438.689 1818.93 433.188 1809.76 430.896 1796.01 426.77 1792.34 423.562 1789.59 411.185 1787.76 403.392 1786.39 393.307 1786.84 389.64 1787.3 385.056 1786.39 384.598 1785.01 388.723 1783.63 391.474 1778.13 394.224 1773.09 394.224 1766.67 394.224 1764.84 391.932 1767.13 385.514 1768.97 379.097 1766.22 375.888 1756.13 371.762 1748.8 368.554 1735.04 358.927 1725.42 350.218 1706.16 332.34 1679.12 319.505 1669.95 323.172 1666.28 324.089 1662.62 322.255 1661.24 318.588 1655.74 304.836 1627.32 313.546 1627.32 328.673 1627.32 336.924 1650.24 341.966 1654.82 334.632 1657.57 330.506 1661.24 331.882 1668.58 340.591 1674.54 347.009 1686.91 355.718 1697 359.386 1706.62 363.511 1715.79 369.929 1717.17 373.596 1719 377.263 1724.5 380.472 1730.46 380.472 1736.88 380.472 1754.3 393.766 1780.88 419.436 1802.89 440.981 1824.89 458.4 1829.47 458.4 1834.52 458.4 1838.18 460.692 1838.18 463.442 1838.18 466.193 1852.85 484.529 1871.19 504.24 1889.07 523.951 1906.49 545.954 1909.69 552.83 1914.74 564.29 1915.2 564.749 1915.65 556.498 1916.11 550.997 1911.53 541.37 1906.49 534.494 1895.03 519.826 1896.86 516.158 1912.9 522.118 1920.24 524.868 1936.74 544.579 1958.29 577.126 1976.62 605.088 1993.12 628.008 1995.42 628.008 1997.25 628.008 1998.62 623.882 1998.62 619.298ZM1449.92 603.254C1464.13 596.378 1481.09 584.46 1487.97 576.209 1498.05 564.29 1499.43 558.79 1497.59 542.287 1493.01 501.948 1456.8 471.235 1399.95 460.234 1349.53 450.607 1346.32 448.315 1376.58 444.648 1426.08 438.23 1436.63 410.726 1396.74 390.098 1356.86 369.929 1298.19 379.097 1277.1 408.893 1265.18 425.854 1268.39 434.563 1289.48 445.106 1321.11 461.15 1355.49 493.697 1379.78 530.827 1392.16 550.08 1402.7 568.416 1402.7 571.625 1402.7 584.918 1379.33 583.543 1341.74 568.416 1308.27 554.664 1298.19 552.83 1250.52 550.997 1190.46 548.705 1185.42 551.914 1209.26 573.917 1225.76 589.502 1243.18 597.754 1278.94 606.463 1323.4 617.923 1327.53 618.382 1377.95 617.006 1417.83 616.09 1428.37 614.256 1449.92 603.254ZM1134.54 564.749C1156.54 552.83 1157.46 551.455 1168.92 513.866 1175.8 491.405 1182.67 477.194 1184.51 480.403 1186.34 483.612 1190.92 485.904 1194.59 485.904 1199.17 485.904 1201.01 479.945 1201.01 463.442 1201.01 451.066 1203.76 433.188 1207.43 423.103 1217.97 392.849 1209.26 366.72 1188.63 366.72 1173.96 366.72 1129.96 411.185 1113 442.356 1099.7 467.568 1086.41 524.41 1086.41 556.956 1086.41 576.667 1087.32 577.584 1099.24 577.584 1106.12 577.584 1121.7 571.625 1134.54 564.749ZM1964.7 468.943C1960.12 464.359 1955.99 471.235 1960.12 477.194 1962.87 482.237 1963.79 482.237 1965.62 477.194 1966.54 473.986 1966.08 470.318 1964.7 468.943ZM345.634 458.858C349.301 451.982 363.053 433.188 375.888 417.602 389.182 402.475 397.433 389.64 394.682 389.64 389.64 389.64 350.676 436.397 337.841 457.942 333.257 465.734 331.882 472.152 334.174 472.152 336.924 472.152 341.966 466.193 345.634 458.858ZM1937.2 437.772C1930.32 429.062 1920.7 419.436 1915.2 416.686 1908.78 413.477 1912.44 419.894 1925.28 435.022 1947.28 461.15 1956.45 463.442 1937.2 437.772ZM1880.36 418.978C1885.4 414.394 1878.52 398.808 1871.65 398.808 1867.52 398.808 1865.69 401.558 1867.52 405.684 1868.9 409.351 1867.98 412.56 1865.23 412.56 1862.48 412.56 1862.02 414.852 1863.4 417.144 1866.6 422.186 1876.23 423.103 1880.36 418.978ZM1832.22 367.637C1829.93 364.428 1824.43 363.053 1820.77 364.428 1817.56 365.803 1808.85 362.594 1801.51 357.552 1794.64 352.51 1785.93 348.384 1782.26 348.842 1777.68 348.842 1777.68 349.759 1782.26 351.593 1785.01 352.51 1787.76 356.177 1787.76 359.386 1787.76 368.095 1825.35 384.598 1831.77 378.638 1835.89 374.971 1835.89 371.762 1832.22 367.637ZM473.069 322.255C489.113 308.045 514.325 287.417 529.452 275.957 549.622 260.83 556.498 253.495 555.581 246.619 554.206 238.826 555.581 237.451 565.666 240.202 571.625 241.577 578.501 241.118 579.876 238.368 581.251 236.076 579.418 233.784 575.75 233.784 571.166 233.784 569.791 231.034 571.166 226.908 574.834 217.74 561.082 213.156 551.914 220.49 547.788 223.699 542.746 231.492 540.454 237.451 537.245 245.244 534.036 247.536 527.16 245.244 520.284 242.952 518.909 243.869 520.742 249.37 523.493 256.246 509.741 284.208 503.782 284.208 502.406 284.208 491.405 292.459 479.945 302.544 468.485 312.629 457.025 320.88 454.733 320.88 449.69 320.88 435.48 338.758 435.48 344.717 435.48 352.968 446.023 347.009 473.069 322.255ZM605.546 325.464C611.506 320.88 614.256 316.754 611.506 316.296 608.297 316.296 601.421 320.422 595.462 325.464 589.502 330.048 586.752 334.174 589.502 334.632 592.711 334.632 599.587 330.506 605.546 325.464ZM660.554 295.668C674.306 286.958 689.434 276.874 694.476 273.206L703.644 266.33 694.476 266.33C683.474 265.872 628.008 300.252 628.008 307.128 628.008 314.921 635.342 312.629 660.554 295.668ZM1608.98 293.834C1608.98 288.792 1602.11 286.5 1567.73 280.541 1518.22 271.831 1503.09 279.624 1547.1 291.084 1575.06 297.96 1608.98 299.794 1608.98 293.834ZM1705.71 282.374C1700.66 276.415 1673.16 264.038 1673.16 268.164 1673.16 270.456 1702.5 288.792 1707.08 288.792 1709.37 288.792 1708.46 286.042 1705.71 282.374ZM1769.42 284.666C1769.42 282.374 1764.84 279.624 1759.34 278.249 1749.25 275.498 1749.25 275.498 1757.51 281.916 1768.05 289.709 1769.42 290.167 1769.42 284.666ZM1663.99 279.624C1663.99 277.332 1662.16 275.04 1659.41 275.04 1657.12 275.04 1654.82 277.332 1654.82 279.624 1654.82 282.374 1657.12 284.208 1659.41 284.208 1662.16 284.208 1663.99 282.374 1663.99 279.624ZM639.468 268.164C649.553 262.205 662.846 254.87 669.264 251.662 675.682 248.911 683.933 244.786 687.6 242.494 691.267 240.202 698.602 236.534 703.644 234.242 708.686 231.95 718.771 223.699 726.106 215.906 738.482 203.071 738.941 201.696 730.231 201.696 725.189 201.696 712.812 208.114 703.186 215.906 693.101 224.158 670.639 237.451 653.22 245.702 635.342 253.954 617.006 264.955 612.422 269.998 603.713 279.624 603.713 279.624 612.422 279.624 617.006 279.624 629.383 274.582 639.468 268.164ZM1724.96 248.911C1715.79 242.035 1709.83 241.118 1709.83 247.536 1709.83 249.828 1706.62 250.745 1702.96 249.37 1698.83 247.536 1696.08 249.37 1696.08 253.495 1696.08 258.079 1701.12 261.288 1711.21 262.205 1728.63 264.038 1735.96 256.704 1724.96 248.911ZM740.316 247.536C741.691 245.244 741.233 242.952 738.482 242.952 736.19 242.952 732.523 245.244 731.148 247.536 729.773 250.286 730.231 252.12 732.982 252.12 735.274 252.12 738.941 250.286 740.316 247.536ZM628.008 229.2C634.426 224.158 637.634 220.032 635.801 220.032 630.758 220.032 605.088 233.326 605.088 236.076 605.088 241.118 617.465 237.451 628.008 229.2ZM691.726 189.319C692.642 188.402 692.642 186.569 690.809 185.194 687.6 181.985 660.096 197.57 660.096 202.613 660.096 204.905 677.057 198.029 691.726 189.319ZM598.212 197.112C599.587 194.82 597.754 192.528 594.086 192.528 589.961 192.528 586.752 194.82 586.752 197.112 586.752 199.862 588.586 201.696 590.878 201.696 593.628 201.696 596.837 199.862 598.212 197.112ZM838.414 162.274C842.539 157.69 814.118 165.024 809.534 170.066 806.784 172.358 811.368 172.358 820.536 169.608 828.787 167.316 836.58 164.107 838.414 162.274ZM920.467 153.106C944.304 150.355 946.138 142.104 922.759 142.104 905.798 142.104 858.583 152.647 853.999 157.69 851.707 159.982 877.836 158.148 920.467 153.106ZM1012.15 102.223C1019.48 100.39 1021.32 98.556 1017.65 96.264 1010.77 92.1384 994.728 95.8056 994.728 101.306 994.728 106.349 997.937 106.349 1012.15 102.223ZM1212.01 69.2184C1215.22 64.6344 1204.22 59.592 1192.76 59.592 1185.88 60.0504 1186.34 60.9672 1193.67 66.468 1204.22 74.2608 1208.8 75.1776 1212.01 69.2184Z" fill="#19425F" transform="matrix(1 0 0 -1.00044 1054 2384)"/><path d="M781.572 2223.24C780.197 2220.95 782.03 2218.66 786.156 2218.66 790.282 2218.66 792.115 2220.95 790.74 2223.24 789.365 2225.99 787.073 2227.82 786.156 2227.82 785.239 2227.82 782.947 2225.99 781.572 2223.24Z" fill="#19425F" transform="matrix(1 0 0 -1.00044 1054 2384)"/><path d="M716.938 2202.61C708.228 2196.19 708.228 2196.19 717.396 2196.19 722.438 2196.19 731.606 2198.95 738.024 2202.61L749.484 2209.03 737.566 2209.49C731.148 2209.49 721.98 2206.28 716.938 2202.61Z" fill="#19425F" transform="matrix(1 0 0 -1.00044 1054 2384)"/><path d="M662.388 2181.98C661.013 2179.23 662.846 2176.02 666.972 2174.65 675.682 2170.98 680.724 2174.65 676.14 2181.53 672.473 2187.94 666.055 2187.94 662.388 2181.98Z" fill="#19425F" transform="matrix(1 0 0 -1.00044 1054 2384)"/><path d="M628.925 2170.98C619.757 2165.94 619.298 2164.56 625.258 2159.52 633.05 2153.1 652.762 2160.9 649.553 2169.61 647.261 2176.94 640.843 2177.86 628.925 2170.98Z" fill="#19425F" transform="matrix(1 0 0 -1.00044 1054 2384)"/><path d="M593.628 2150.35C592.253 2148.06 593.17 2144.85 595.92 2143.02 598.212 2141.65 600.504 2143.48 600.504 2147.15 600.504 2155.4 597.754 2156.77 593.628 2150.35Z" fill="#19425F" transform="matrix(1 0 0 -1.00044 1054 2384)"/><path d="M1732.75 2063.72C1732.75 2058.67 1747.88 2044.46 1752.92 2044.46 1755.21 2044.46 1763.01 2038.96 1771.26 2032.55 1783.63 2022 1785.47 2021.09 1786.84 2027.96 1789.59 2041.26 1784.55 2048.13 1765.3 2058.22 1746.05 2067.84 1732.75 2070.13 1732.75 2063.72Z" fill="#19425F" transform="matrix(1 0 0 -1.00044 1054 2384)"/><path d="M381.389 2029.8C376.346 2023.84 363.511 2011 352.968 2001.37 342.883 1991.75 334.632 1979.83 334.632 1975.25 334.632 1970.2 335.09 1966.54 336.007 1966.54 336.924 1966.54 352.51 1983.04 370.846 2003.21 389.182 2023.38 401.1 2039.88 397.433 2039.88 394.224 2039.88 386.89 2035.3 381.389 2029.8Z" fill="#19425F" transform="matrix(1 0 0 -1.00044 1054 2384)"/><path d="M1814.81 2007.79C1825.81 1997.71 1835.89 1990.37 1836.81 1991.29 1842.77 1996.79 1830.85 2014.21 1817.1 2019.71 1793.26 2029.8 1792.8 2027.5 1814.81 2007.79Z" fill="#19425F" transform="matrix(1 0 0 -1.00044 1054 2384)"/><path d="M1713.04 1987.62C1722.21 1975.25 1737.34 1964.24 1737.34 1970.2 1737.34 1975.25 1714.87 1998.62 1709.37 1998.62 1707.08 1998.62 1708.46 1993.58 1713.04 1987.62Z" fill="#19425F" transform="matrix(1 0 0 -1.00044 1054 2384)"/><path d="M1845.52 1985.33C1841.39 1978.91 1854.69 1970.66 1863.4 1973.87 1871.19 1977.08 1871.19 1977.54 1862.94 1983.5 1853.31 1990.37 1848.73 1990.83 1845.52 1985.33Z" fill="#19425F" transform="matrix(1 0 0 -1.00044 1054 2384)"/><path d="M310.795 1951.87C307.128 1948.66 296.126 1937.2 286.5 1926.66 271.831 1909.69 270.914 1906.94 278.249 1906.94 283.291 1906.94 289.709 1911.99 292.459 1917.95 295.21 1923.91 301.627 1930.32 306.211 1932.16 318.13 1935.82 333.257 1957.37 324.089 1957.37 320.88 1957.37 314.921 1954.62 310.795 1951.87Z" fill="#19425F" transform="matrix(1 0 0 -1.00044 1054 2384)"/><path d="M1888.61 1953.7C1888.61 1946.37 1937.2 1902.36 1945.45 1902.36 1957.83 1902.36 1953.24 1908.78 1922.99 1934.45 1896.86 1956.91 1888.61 1961.04 1888.61 1953.7Z" fill="#19425F" transform="matrix(1 0 0 -1.00044 1054 2384)"/><path d="M258.996 1892.28C238.368 1868.9 219.115 1837.27 221.866 1831.31 223.241 1827.18 216.823 1817.56 204.905 1806.55 185.194 1788.22 183.36 1777.68 201.696 1788.68 229.2 1804.72 251.662 1837.27 253.954 1863.85 254.87 1873.48 258.996 1883.57 263.58 1886.77 267.706 1889.98 270.456 1895.03 269.539 1897.78 268.622 1900.53 264.038 1898.23 258.996 1892.28Z" fill="#19425F" transform="matrix(1 0 0 -1.00044 1054 2384)"/><path d="M1770.8 1889.07C1769.88 1878.06 1779.97 1868.9 1790.05 1871.19 1796.01 1872.11 1795.09 1874.86 1784.55 1884.94 1772.63 1896.4 1771.26 1896.86 1770.8 1889.07Z" fill="#19425F" transform="matrix(1 0 0 -1.00044 1054 2384)"/><path d="M1888.61 1894.11C1888.61 1889.53 1908.32 1870.27 1912.9 1870.27 1920.24 1870.27 1915.2 1879.44 1902.36 1888.61 1895.03 1894.11 1888.61 1896.4 1888.61 1894.11Z" fill="#19425F" transform="matrix(1 0 0 -1.00044 1054 2384)"/><path d="M1975.7 1866.15C1980.29 1856.52 1989.46 1849.19 1989.46 1854.23 1989.46 1860.65 1979.83 1874.86 1975.25 1874.86 1972.5 1874.86 1972.5 1871.65 1975.7 1866.15Z" fill="#19425F" transform="matrix(1 0 0 -1.00044 1054 2384)"/><path d="M1760.26 1866.15C1760.26 1863.85 1763.46 1860.65 1767.59 1859.27 1778.59 1855.15 1780.43 1856.06 1774.01 1863.4 1767.59 1871.19 1760.26 1872.56 1760.26 1866.15Z" fill="#19425F" transform="matrix(1 0 0 -1.00044 1054 2384)"/><path d="M1969.29 1845.98C1970.66 1841.39 1973.41 1839.1 1974.79 1840.48 1976.16 1841.85 1974.79 1845.52 1971.58 1848.73 1966.99 1852.85 1966.54 1852.39 1969.29 1845.98Z" fill="#19425F" transform="matrix(1 0 0 -1.00044 1054 2384)"/><path d="M1998.62 1843.68C1998.62 1838.18 2007.33 1831.77 2010.54 1834.98 2011.46 1835.89 2009.63 1839.56 2005.5 1842.77 2001.37 1846.44 1998.62 1846.44 1998.62 1843.68Z" fill="#19425F" transform="matrix(1 0 0 -1.00044 1054 2384)"/><path d="M1842.77 1838.18C1842.77 1835.89 1845.06 1833.6 1847.35 1833.6 1850.1 1833.6 1851.94 1835.89 1851.94 1838.18 1851.94 1840.93 1850.1 1842.77 1847.35 1842.77 1845.06 1842.77 1842.77 1840.93 1842.77 1838.18Z" fill="#19425F" transform="matrix(1 0 0 -1.00044 1054 2384)"/><path d="M1851.94 1826.27C1851.94 1824.89 1856.98 1817.56 1863.4 1809.76 1869.81 1802.43 1874.86 1798.76 1874.86 1802.43 1874.4 1812.51 1851.94 1836.35 1851.94 1826.27Z" fill="#19425F" transform="matrix(1 0 0 -1.00044 1054 2384)"/><path d="M1960.12 1824.89C1958.29 1822.6 1959.2 1819.39 1961.49 1818.01 1963.79 1816.18 1966.99 1817.1 1968.37 1819.39 1970.2 1821.68 1969.29 1824.89 1966.99 1826.27 1964.7 1828.1 1961.49 1827.18 1960.12 1824.89Z" fill="#19425F" transform="matrix(1 0 0 -1.00044 1054 2384)"/><path d="M1916.11 1822.6C1916.11 1821.68 1923.45 1812.97 1932.61 1803.8 1950.95 1785.01 1959.2 1785.01 1942.7 1803.8 1932.61 1815.26 1916.11 1827.18 1916.11 1822.6Z" fill="#19425F" transform="matrix(1 0 0 -1.00044 1054 2384)"/><path d="M2021.54 1816.18C2021.54 1810.68 2030.25 1804.26 2033.46 1807.47 2034.38 1808.39 2032.55 1812.06 2028.42 1815.26 2024.29 1818.93 2021.54 1818.93 2021.54 1816.18Z" fill="#19425F" transform="matrix(1 0 0 -1.00044 1054 2384)"/><path d="M2234.7 1485.22C2236.08 1482.92 2239.28 1480.63 2242.03 1480.63 2244.33 1480.63 2246.16 1482.92 2246.16 1485.22 2246.16 1487.97 2242.95 1489.8 2238.83 1489.8 2235.16 1489.8 2233.32 1487.97 2234.7 1485.22Z" fill="#19425F" transform="matrix(1 0 0 -1.00044 1054 2384)"/><path d="M2184.28 1420.58C2179.69 1413.71 2185.65 1409.12 2191.61 1415.08 2194.82 1418.29 2194.82 1421.04 2192.07 1422.87 2189.32 1424.25 2185.65 1423.33 2184.28 1420.58Z" fill="#19425F" transform="matrix(1 0 0 -1.00044 1054 2384)"/><path d="M2282.37 1331.65C2281 1329.36 2282.37 1315.61 2285.58 1301.86 2290.17 1281.23 2291.08 1279.39 2291.08 1292.69 2291.08 1313.77 2285.58 1337.61 2282.37 1331.65Z" fill="#19425F" transform="matrix(1 0 0 -1.00044 1054 2384)"/><path d="M4.584 1178.09C4.584 1175.8 6.876 1173.5 9.6264 1173.5 11.9184 1173.5 12.8352 1175.8 11.46 1178.09 10.0848 1180.84 7.7928 1182.67 6.4176 1182.67 5.5008 1182.67 4.584 1180.84 4.584 1178.09Z" fill="#19425F" transform="matrix(1 0 0 -1.00044 1054 2384)"/><path d="M2288.33 880.128C2288.33 873.71 2289.25 871.418 2290.62 874.627 2291.54 877.378 2291.54 882.878 2290.62 886.087 2289.25 888.838 2288.33 886.546 2288.33 880.128Z" fill="#19425F" transform="matrix(1 0 0 -1.00044 1054 2384)"/><path d="M2276.87 834.288C2275.5 829.246 2276.41 825.12 2278.71 825.12 2281 825.12 2282.83 829.246 2282.83 834.288 2282.83 839.33 2281.92 843.456 2281 843.456 2280.08 843.456 2278.25 839.33 2276.87 834.288Z" fill="#19425F" transform="matrix(1 0 0 -1.00044 1054 2384)"/><path d="M97.1808 794.866C86.6376 778.363 87.096 770.112 99.0144 770.112 102.682 770.112 105.432 765.528 105.432 759.11 105.432 744.9 110.016 733.44 115.058 733.44 117.35 733.44 119.184 736.649 119.184 740.316 119.184 743.525 122.393 748.567 126.518 750.859 135.228 755.902 132.019 779.738 121.018 788.906 117.35 791.657 114.6 796.699 114.6 800.366 114.6 812.285 107.266 809.993 97.1808 794.866Z" fill="#19425F" transform="matrix(1 0 0 -1.00044 1054 2384)"/><path d="M2258.54 757.735C2256.7 756.36 2255.33 752.693 2255.33 749.942 2255.33 747.192 2257.62 747.65 2260.83 750.859 2263.58 753.61 2264.95 757.277 2264.04 758.652 2262.66 760.027 2259.91 759.569 2258.54 757.735Z" fill="#19425F" transform="matrix(1 0 0 -1.00044 1054 2384)"/><path d="M121.934 710.52C132.019 683.474 138.437 676.598 134.77 696.768 132.936 705.478 127.894 716.938 122.851 721.98 114.142 731.148 114.142 731.148 121.934 710.52Z" fill="#19425F" transform="matrix(1 0 0 -1.00044 1054 2384)"/><path d="M2244.78 721.063C2242.95 719.688 2241.58 716.021 2241.58 713.27 2241.58 710.52 2243.87 710.978 2247.08 714.187 2249.83 716.938 2251.2 720.605 2250.29 721.98 2248.91 723.355 2246.16 722.897 2244.78 721.063Z" fill="#19425F" transform="matrix(1 0 0 -1.00044 1054 2384)"/><path d="M2108.64 705.478C2108.64 703.186 2110.93 702.269 2113.22 703.644 2115.97 705.019 2117.81 707.311 2117.81 708.686 2117.81 709.603 2115.97 710.52 2113.22 710.52 2110.93 710.52 2108.64 708.228 2108.64 705.478Z" fill="#19425F" transform="matrix(1 0 0 -1.00044 1054 2384)"/><path d="M2102.22 692.642C2100.39 689.434 2099.93 685.766 2101.31 684.391 2105.43 680.266 2110.02 686.225 2107.72 692.642 2105.89 697.685 2104.97 697.685 2102.22 692.642Z" fill="#19425F" transform="matrix(1 0 0 -1.00044 1054 2384)"/><path d="M2170.52 673.848C2165.48 662.388 2156.77 646.344 2150.81 638.093 2139.81 621.59 2140.73 613.798 2152.65 621.132 2160.9 626.633 2182.44 677.515 2181.07 687.6 2180.15 691.267 2175.57 684.85 2170.52 673.848Z" fill="#19425F" transform="matrix(1 0 0 -1.00044 1054 2384)"/><path d="M146.688 648.178C146.688 644.51 148.98 642.677 151.272 644.052 154.022 645.886 154.939 649.094 153.564 651.386 149.438 657.804 146.688 656.429 146.688 648.178Z" fill="#19425F" transform="matrix(1 0 0 -1.00044 1054 2384)"/><path d="M2135.23 599.587C2131.56 596.378 2117.81 574.834 2104.51 551.914 2091.68 528.535 2077.93 507.449 2074.26 504.24 2066.47 497.822 2065.09 478.111 2071.97 475.819 2074.72 474.902 2073.8 468.943 2069.68 460.692L2062.8 446.94 2074.26 459.775C2080.68 466.651 2085.72 476.736 2085.72 481.778 2085.72 494.614 2093.97 508.824 2101.31 508.824 2107.26 508.824 2129.27 550.997 2129.73 563.374 2130.19 580.334 2137.06 595.462 2143.48 592.711 2147.15 591.336 2149.9 593.17 2149.9 597.754 2149.9 606.463 2144.85 606.922 2135.23 599.587Z" fill="#19425F" transform="matrix(1 0 0 -1.00044 1054 2384)"/><path d="M2067.84 562.457C2054.55 542.746 2044.46 524.41 2045.38 521.659 2047.67 514.783 2053.63 521.659 2077.01 558.79 2103.6 600.962 2096.26 604.171 2067.84 562.457Z" fill="#19425F" transform="matrix(1 0 0 -1.00044 1054 2384)"/><path d="M2015.13 484.987C2011 479.486 2007.79 473.069 2007.79 470.777 2007.79 464.818 2021.09 476.278 2026.59 486.821 2033 498.739 2023.84 497.364 2015.13 484.987Z" fill="#19425F" transform="matrix(1 0 0 -1.00044 1054 2384)"/><path d="M277.79 432.73C273.665 422.186 274.123 421.728 286.5 421.728 298.877 421.728 301.169 425.854 292.459 434.563 285.125 441.898 280.999 441.439 277.79 432.73Z" fill="#19425F" transform="matrix(1 0 0 -1.00044 1054 2384)"/><path d="M2030.71 412.56C2027.96 407.059 2026.59 401.558 2027.5 400.183 2028.88 399.266 2032.55 402.475 2035.3 407.976 2038.05 413.477 2039.42 418.978 2038.51 420.353 2037.13 421.27 2033.46 418.061 2030.71 412.56Z" fill="#19425F" transform="matrix(1 0 0 -1.00044 1054 2384)"/><path d="M296.126 392.39C297.502 388.723 302.086 384.598 306.211 382.764 312.17 380.472 312.17 381.847 304.836 389.64 295.21 400.642 292.918 401.1 296.126 392.39Z" fill="#19425F" transform="matrix(1 0 0 -1.00044 1054 2384)"/><path d="M2005.5 385.056C2004.12 382.764 2005.04 380.472 2007.33 380.472 2010.08 380.472 2012.38 382.764 2012.38 385.056 2012.38 387.806 2011.46 389.64 2010.54 389.64 2009.17 389.64 2006.88 387.806 2005.5 385.056Z" fill="#19425F" transform="matrix(1 0 0 -1.00044 1054 2384)"/><path d="M1974.79 373.596C1970.2 367.637 1966.54 360.761 1966.54 358.469 1966.54 356.177 1962.41 352.968 1957.37 351.593 1951.41 350.218 1949.12 347.009 1950.95 341.966 1955.08 330.965 1963.33 333.257 1979.83 350.218 1992.66 363.511 1994.04 367.178 1989.91 375.43 1983.5 386.89 1984.41 387.348 1974.79 373.596Z" fill="#19425F" transform="matrix(1 0 0 -1.00044 1054 2384)"/><path d="M316.296 373.138C316.296 371.304 324.547 359.844 334.632 347.926 344.717 336.007 352.968 321.797 352.968 316.296 352.968 311.254 356.635 305.753 361.219 304.378 365.345 303.002 374.513 299.335 381.389 295.668 396.516 287.875 403.392 294.751 392.39 306.67 388.265 311.254 385.056 317.213 385.056 319.963 385.056 323.172 377.263 329.131 368.095 333.715 352.51 341.05 350.676 343.342 352.051 356.635 353.426 369.47 352.051 371.304 341.966 371.304 336.007 371.304 327.756 372.679 323.63 374.054 319.505 375.43 316.296 375.43 316.296 373.138Z" fill="#19425F" transform="matrix(1 0 0 -1.00044 1054 2384)"/><path d="M1873.48 358.927C1864.31 352.51 1856.52 345.175 1856.52 342.883 1856.52 340.591 1864.77 345.634 1874.86 353.426 1891.36 366.72 1895.48 371.304 1891.82 371.304 1891.36 371.304 1883.11 365.803 1873.48 358.927Z" fill="#19425F" transform="matrix(1 0 0 -1.00044 1054 2384)"/><path d="M1909.24 315.379C1879.44 291.084 1875.77 285.125 1893.65 287.875 1900.98 288.792 1906.94 291.542 1906.94 293.834 1906.94 296.126 1914.28 306.211 1923.45 316.296 1944.53 339.674 1938.57 339.216 1909.24 315.379Z" fill="#19425F" transform="matrix(1 0 0 -1.00044 1054 2384)"/><path d="M421.728 263.58C424.937 259.913 429.521 256.704 431.813 256.704 434.563 256.704 434.105 259.913 430.896 263.58 427.687 267.247 423.103 270.456 420.811 270.456 418.061 270.456 418.519 267.247 421.728 263.58Z" fill="#19425F" transform="matrix(1 0 0 -1.00044 1054 2384)"/><path d="M1854.69 252.12C1830.85 233.784 1828.1 230.575 1846.44 241.118 1859.73 248.911 1879.44 265.872 1874.4 265.872 1873.48 265.872 1864.77 259.454 1854.69 252.12Z" fill="#19425F" transform="matrix(1 0 0 -1.00044 1054 2384)"/><path d="M445.565 246.619C448.315 238.826 493.697 201.696 500.573 201.696 503.323 201.696 502.406 205.363 498.281 209.947 493.697 214.531 490.488 220.49 490.488 222.782 490.488 225.074 479.945 232.867 467.11 239.743 453.358 247.078 444.648 250.286 445.565 246.619Z" fill="#19425F" transform="matrix(1 0 0 -1.00044 1054 2384)"/><path d="M1897.78 228.742C1897.78 226.45 1900.07 225.533 1902.36 226.908 1905.11 228.283 1906.94 230.575 1906.94 231.95 1906.94 232.867 1905.11 233.784 1902.36 233.784 1900.07 233.784 1897.78 231.492 1897.78 228.742Z" fill="#19425F" transform="matrix(1 0 0 -1.00044 1054 2384)"/><path d="M1847.35 194.82C1840.93 191.153 1838.18 188.402 1840.93 187.944 1843.23 187.944 1849.64 191.153 1854.69 194.82 1865.69 203.071 1862.02 203.53 1847.35 194.82Z" fill="#19425F" transform="matrix(1 0 0 -1.00044 1054 2384)"/><path d="M557.414 159.523C567.499 148.063 579.418 139.812 585.377 139.354 590.878 138.895 598.212 136.603 601.879 133.853 609.214 127.435 715.104 77.4696 715.104 80.22 715.104 81.1368 694.934 92.5968 670.639 105.89 645.886 119.184 607.38 141.187 585.377 154.481 563.374 167.774 544.121 178.776 542.287 178.776 540.912 178.776 547.788 170.066 557.414 159.523Z" fill="#19425F" transform="matrix(1 0 0 -1.00044 1054 2384)"/><path d="M646.344 146.23C646.344 143.938 654.137 138.437 663.763 134.77 672.931 130.644 693.101 121.476 708.228 114.6 752.693 93.5136 797.158 77.0112 805.867 78.8448 809.993 79.7616 798.074 86.1792 779.28 93.0552 760.486 100.39 738.482 110.933 730.231 117.35 722.438 123.31 710.978 128.352 705.019 128.352 699.06 128.352 686.225 133.394 676.14 139.812 656.429 151.73 646.344 154.022 646.344 146.23Z" fill="#19425F" transform="matrix(1 0 0 -1.00044 1054 2384)"/><path d="M829.704 124.685C829.704 119.642 834.746 113.683 841.622 110.474 856.75 103.598 862.709 108.641 850.332 116.892 845.29 120.559 838.414 125.602 835.663 128.352 831.079 132.019 829.704 131.102 829.704 124.685Z" fill="#19425F" transform="matrix(1 0 0 -1.00044 1054 2384)"/><path d="M896.172 28.4208C898.922 25.6704 909.924 22.4616 921.384 20.628 934.678 18.336 940.637 18.7944 937.428 22.0032 935.136 24.2952 923.676 27.504 912.216 29.3376 899.381 31.6296 893.422 31.1712 896.172 28.4208Z" fill="#19425F" transform="matrix(1 0 0 -1.00044 1054 2384)"/></g></svg>