<?xml version="1.0" standalone="no"?>
<!DOCTYPE svg PUBLIC "-//W3C//DTD SVG 20010904//EN"
 "http://www.w3.org/TR/2001/REC-SVG-20010904/DTD/svg10.dtd">
<svg version="1.0" xmlns="http://www.w3.org/2000/svg"
 width="500.000000pt" height="500.000000pt" viewBox="0 0 500.000000 500.000000"
 preserveAspectRatio="xMidYMid meet">

<g transform="translate(0.000000,500.000000) scale(0.100000,-0.100000)"
fill="#8a8a8a" stroke="none">
<path d="M2507 4904 c-3 -3 -50 -5 -105 -5 -68 0 -110 -4 -130 -14 -16 -8 -89
-22 -163 -30 -88 -11 -139 -21 -151 -31 -9 -9 -38 -17 -65 -19 -150 -10 -638
-204 -738 -294 -63 -56 -115 -85 -115 -62 0 9 106 104 179 161 47 36 39 57 -8
22 -15 -11 -61 -43 -102 -71 -95 -64 -247 -206 -255 -236 -4 -15 -19 -29 -44
-39 -29 -12 -40 -22 -45 -46 -4 -16 -27 -55 -51 -84 -24 -30 -44 -58 -44 -62
0 -9 -88 -133 -117 -165 -13 -14 -23 -30 -22 -35 5 -28 -2 -46 -16 -40 -9 3
-15 0 -15 -9 0 -8 -12 -20 -27 -27 -15 -7 -34 -26 -42 -43 -32 -69 -41 -84
-94 -168 -31 -48 -58 -93 -60 -100 -2 -7 -7 -9 -11 -6 -4 4 0 24 9 45 10 24
12 41 6 47 -6 6 4 36 30 83 21 40 39 79 39 86 -1 18 -70 -63 -70 -82 0 -8 -9
-28 -20 -45 -11 -16 -20 -36 -20 -43 0 -8 -9 -27 -20 -42 -27 -38 -74 -153
-111 -270 -32 -103 -43 -220 -22 -227 8 -3 13 5 14 19 1 15 3 18 6 6 2 -9 -6
-40 -18 -69 -21 -47 -21 -53 -6 -64 13 -9 15 -18 7 -47 -6 -19 -19 -43 -29
-53 -26 -23 -36 -72 -21 -100 11 -20 9 -28 -9 -53 -31 -44 -26 -83 7 -50 22
22 27 -3 28 -136 1 -77 6 -141 12 -152 10 -16 11 -17 12 -2 0 19 39 50 52 42
14 -9 9 -24 -7 -18 -18 7 -20 -17 -4 -33 7 -7 9 -23 5 -38 -7 -26 -8 -26 -31
-11 -14 9 -25 13 -26 9 -4 -38 6 -122 22 -187 11 -43 18 -84 15 -91 -2 -7 2
-25 10 -40 8 -15 14 -46 14 -69 0 -57 13 -74 30 -41 11 20 20 25 44 23 30 -3
31 -1 28 31 -5 44 14 33 28 -17 14 -52 13 -62 -7 -55 -14 5 -13 1 5 -19 26
-29 28 -40 6 -31 -13 5 -15 2 -9 -18 11 -34 23 -47 48 -51 15 -2 23 -11 25
-28 2 -14 8 -29 13 -34 5 -6 9 -20 9 -33 0 -12 10 -31 21 -42 17 -16 20 -27
15 -52 -3 -17 -2 -37 3 -43 4 -6 12 -29 16 -50 6 -36 5 -38 -9 -26 -9 7 -19
10 -22 7 -9 -8 6 -106 17 -113 5 -3 9 -13 9 -22 0 -20 -62 37 -91 83 -29 45
-23 25 20 -72 63 -144 63 -144 76 -133 9 8 14 6 19 -5 3 -8 17 -15 30 -15 18
0 30 -9 41 -31 18 -34 13 -48 -10 -29 -12 10 -15 10 -15 -1 0 -8 -11 -2 -25
14 -36 41 -31 20 14 -53 40 -68 63 -87 54 -48 -4 23 -4 23 12 3 9 -11 14 -28
11 -37 -2 -10 0 -21 5 -24 5 -3 9 0 9 5 0 6 15 11 34 11 48 0 53 15 19 57 -45
57 -65 93 -50 93 7 0 21 -15 32 -32 10 -18 21 -35 24 -38 3 -3 19 -23 35 -45
16 -22 43 -57 60 -77 17 -20 42 -51 56 -69 37 -49 199 -207 243 -236 20 -14
37 -33 37 -43 0 -9 10 -26 22 -37 52 -47 283 -203 301 -203 19 0 19 1 4 18
-22 24 -21 32 2 32 11 0 21 5 23 12 3 8 23 1 59 -19 127 -71 223 -113 277
-120 79 -12 2 57 -114 102 -88 34 -102 43 -88 57 5 5 85 -22 122 -41 9 -5 35
-17 57 -26 22 -9 57 -25 77 -36 21 -11 42 -18 48 -14 5 3 17 1 27 -4 45 -25
113 -49 118 -41 6 9 66 -10 88 -29 10 -8 27 -10 47 -6 23 5 30 3 30 -9 0 -21
70 -42 96 -28 10 5 28 6 39 2 16 -5 13 -8 -14 -13 -19 -4 -46 -7 -62 -7 -16 0
-29 -4 -29 -10 0 -5 24 -10 53 -10 29 0 57 -4 63 -10 5 -5 22 -11 37 -12 15
-1 27 -5 27 -9 0 -27 -240 -15 -422 22 -113 22 -166 24 -98 3 79 -25 219 -45
377 -54 85 -5 157 -11 160 -13 6 -7 -119 -23 -194 -26 -13 -1 -23 -5 -23 -11
0 -6 85 -10 235 -10 133 0 235 4 235 9 0 5 14 14 30 20 17 5 30 17 30 25 0 18
15 22 103 31 57 6 72 4 88 -11 23 -21 102 -14 187 17 32 11 77 24 102 28 25 4
59 14 75 23 17 9 46 19 65 23 116 25 400 126 474 170 23 14 51 25 62 25 11 0
27 8 35 18 9 9 30 25 48 34 21 12 33 27 37 47 5 22 20 39 55 62 27 17 49 35
49 40 0 5 -2 9 -4 9 -7 0 -101 -53 -106 -60 -8 -11 -141 -85 -177 -97 -17 -6
-34 -9 -37 -6 -3 4 -6 0 -6 -8 0 -9 -13 -27 -28 -42 -25 -24 -35 -27 -103 -27
-51 0 -81 -5 -97 -16 -12 -8 -28 -12 -35 -7 -6 4 -24 6 -39 4 -16 -1 -28 2
-28 8 0 6 8 12 18 12 9 1 -3 5 -28 10 -25 5 -133 6 -240 2 -250 -7 -329 3
-610 79 -348 93 -396 101 -730 113 -172 6 -210 12 -298 47 -105 41 -90 92 38
133 45 14 90 25 101 25 38 0 18 -20 -36 -35 -119 -35 -65 -51 129 -39 177 11
416 9 510 -6 39 -6 150 -28 246 -49 96 -22 204 -44 240 -50 72 -11 771 -16
808 -5 18 5 21 3 16 -10 -4 -11 -1 -16 12 -16 42 0 99 -24 125 -51 l26 -28 84
42 c81 40 194 116 269 180 74 63 170 158 170 168 0 13 -9 6 -79 -58 -25 -23
-57 -48 -70 -55 -13 -7 -37 -25 -54 -40 -16 -16 -34 -28 -41 -28 -6 0 -40 -23
-75 -50 -35 -28 -68 -50 -75 -50 -6 0 2 10 17 22 20 14 25 23 17 28 -18 11 -4
28 56 66 29 19 58 43 64 54 14 26 86 72 108 69 30 -4 53 12 47 31 -6 20 59 95
75 85 4 -3 20 2 36 10 33 17 50 10 33 -13 -6 -10 1 -4 15 12 15 16 25 35 22
43 -3 8 -6 22 -6 31 0 12 -9 6 -29 -18 -16 -19 -33 -32 -36 -28 -4 4 14 32 39
63 25 31 46 67 46 80 0 14 7 25 20 28 11 3 24 16 29 29 5 12 32 58 60 100 28
43 60 96 71 119 24 47 21 79 -3 34 -28 -52 -18 -10 19 78 27 66 39 84 52 80
11 -3 23 7 35 26 10 17 22 31 26 31 5 0 11 6 14 14 4 10 -1 14 -15 13 -11 -1
-24 -12 -29 -24 -5 -13 -16 -23 -24 -23 -25 0 -29 29 -7 53 11 12 25 34 31 50
16 41 33 34 25 -10 -6 -33 -5 -36 8 -26 8 7 18 10 21 6 12 -12 7 -50 -8 -63
-9 -8 -13 -21 -9 -32 4 -14 0 -21 -14 -25 -27 -7 -35 -26 -37 -93 l-3 -55 20
25 c13 17 18 33 14 52 -4 19 -1 28 8 28 7 0 21 16 32 35 l18 35 28 -32 c24
-29 29 -31 41 -18 17 18 91 233 107 310 7 30 16 62 20 71 5 9 11 42 15 75 4
32 9 68 12 79 10 51 14 213 5 219 -6 3 -13 -19 -17 -57 -9 -95 -15 -117 -31
-117 -14 0 -18 28 -15 105 2 27 9 46 24 58 17 14 18 17 5 13 -20 -6 -22 4 -12
78 9 62 34 64 34 1 0 -25 5 -45 10 -45 12 0 13 9 10 75 -1 28 -7 56 -13 63 -7
9 -7 16 0 20 17 12 25 114 13 188 -6 38 -25 112 -42 164 -16 52 -32 101 -34
108 -2 6 -8 12 -13 12 -11 0 -8 -23 19 -170 20 -104 12 -152 -13 -90 -8 19
-18 51 -22 70 -14 69 -24 67 -26 -5 l-1 -70 -16 60 c-11 40 -18 53 -20 38 -2
-14 -10 -23 -21 -23 -15 0 -25 23 -50 118 -18 64 -45 152 -61 195 l-28 78 20
19 c20 18 20 21 4 60 -18 45 -21 64 -5 38 5 -10 17 -18 24 -18 18 0 19 23 4
52 -7 12 -7 24 -2 29 13 13 63 -82 63 -119 0 -33 19 -56 21 -25 0 10 11 -6 25
-34 13 -29 26 -53 29 -53 7 0 -3 45 -19 90 -25 65 -56 176 -56 197 0 12 -9 42
-20 68 -21 50 -26 75 -11 60 5 -6 39 -64 75 -130 106 -194 93 -81 -16 138 -26
53 -58 97 -98 137 -33 32 -60 65 -60 73 0 8 -18 30 -40 47 -45 36 -50 33 -18
-10 39 -53 10 -44 -48 14 -31 31 -60 56 -64 56 -5 0 -15 12 -22 27 -14 28 -73
52 -89 36 -5 -5 9 -31 32 -57 30 -37 37 -51 27 -57 -20 -13 -23 -12 -68 32
-37 36 -46 40 -61 30 -28 -17 -54 -13 -74 9 -13 14 -22 17 -29 10 -5 -5 -18
-10 -27 -10 -10 0 -19 -5 -21 -11 -6 -17 -45 6 -91 52 -59 61 -65 46 -8 -17
29 -31 49 -59 47 -62 -8 -7 -104 80 -105 96 -1 6 -6 12 -11 12 -6 0 -32 20
-58 43 -26 24 -69 59 -97 77 -79 53 -95 70 -89 97 4 14 2 23 -6 23 -6 0 -8 4
-5 10 3 5 28 -7 55 -26 28 -20 50 -32 50 -27 0 16 -74 78 -88 75 -8 -2 -16 5
-18 15 -5 19 -36 36 -87 47 -16 4 -31 16 -36 30 -8 20 -50 56 -66 56 -3 0 -5
-18 -5 -40 0 -33 4 -42 23 -49 12 -5 27 -6 34 -4 6 3 28 -3 48 -12 26 -13 34
-22 30 -35 -6 -18 19 -35 35 -25 8 5 22 -36 15 -43 -5 -5 -98 48 -144 82 -19
14 -38 26 -42 26 -15 0 -10 -718 7 -957 20 -293 16 -623 -9 -700 -10 -28 -30
-65 -46 -82 -25 -27 -36 -31 -79 -31 -46 0 -53 3 -116 61 -37 34 -73 76 -81
94 -7 19 -24 39 -37 46 -50 26 -212 191 -206 209 2 7 13 4 29 -9 47 -37 264
-150 301 -156 31 -6 38 -4 52 18 24 36 29 154 17 387 -6 113 -15 403 -22 645
-7 287 -15 448 -22 463 -6 13 -28 31 -49 39 -21 8 -38 19 -38 23 0 19 21 19
52 0 18 -11 36 -20 41 -20 4 0 7 29 7 65 0 57 -3 69 -25 90 -28 29 -42 31 -74
9 -28 -20 -46 -6 -36 26 10 32 63 60 116 60 80 0 209 -80 209 -129 0 -6 5 -11
10 -11 6 0 20 -11 32 -25 12 -14 31 -25 42 -25 27 0 77 -31 143 -87 29 -25 57
-42 62 -38 6 3 30 -12 54 -35 24 -22 52 -40 61 -40 9 0 16 -6 16 -14 0 -20 74
-100 88 -95 9 3 8 10 -6 24 -10 11 -23 28 -28 37 -5 10 -34 38 -64 64 -30 26
-58 53 -61 62 -3 8 -14 16 -25 17 -11 1 -61 28 -112 61 -80 51 -92 62 -87 82
4 18 -1 25 -32 40 -37 17 -78 55 -65 60 14 5 204 -102 245 -138 23 -20 60 -45
82 -55 22 -10 66 -36 98 -58 32 -21 61 -36 64 -33 10 10 -39 66 -85 98 -55 37
-65 50 -49 60 14 8 -25 53 -64 74 -25 13 -27 12 -22 -6 7 -27 -15 -19 -92 35
-33 23 -82 55 -108 70 -26 15 -46 29 -44 31 6 7 77 -25 108 -48 32 -24 46 -20
30 10 -7 13 -7 22 1 30 5 5 7 15 4 20 -14 23 -284 145 -379 172 -56 16 -129
41 -162 54 -33 14 -79 26 -101 26 -23 0 -57 6 -75 14 -52 21 -436 55 -452 40z
m-102 -54 c-3 -5 -16 -10 -28 -10 -18 0 -19 2 -7 10 20 13 43 13 35 0z m-250
-30 c-46 -21 -69 -25 -60 -9 10 14 45 28 75 28 21 0 19 -3 -15 -19z m1005 -46
c0 -2 -7 -4 -15 -4 -8 0 -15 4 -15 10 0 5 7 7 15 4 8 -4 15 -8 15 -10z m50 -8
c0 -3 -4 -8 -10 -11 -5 -3 -10 -1 -10 4 0 6 5 11 10 11 6 0 10 -2 10 -4z
m-1424 -21 c-36 -19 -42 -19 -26 0 7 8 22 15 34 15 18 0 17 -2 -8 -15z m-81
-24 c-6 -4 -23 -12 -39 -15 -26 -6 -28 -5 -17 8 8 9 25 16 39 16 15 0 22 -4
17 -9z m162 3 c-3 -3 -12 -4 -19 -1 -8 3 -5 6 6 6 11 1 17 -2 13 -5z m-257
-28 c0 -13 -100 -58 -180 -81 -44 -13 -9 12 75 55 88 43 105 47 105 26z m-230
-95 c0 -12 -40 -41 -57 -41 -21 0 -15 26 10 38 28 14 47 15 47 3z m867 -18
c37 -15 63 -48 63 -81 0 -17 -9 -27 -37 -39 -52 -21 -165 -133 -297 -293 -219
-266 -384 -446 -435 -473 -60 -33 -126 -37 -171 -11 -18 10 -31 22 -29 25 2 4
-5 16 -15 28 l-19 21 40 0 c29 0 50 8 74 28 62 50 174 175 318 354 78 97 181
219 229 271 48 52 107 117 133 146 42 48 47 51 80 44 18 -3 48 -12 66 -20z
m870 21 c-3 -3 -12 -4 -19 -1 -8 3 -5 6 6 6 11 1 17 -2 13 -5z m-1817 -53 c0
-12 -54 -51 -69 -51 -6 0 -57 -41 -112 -91 -56 -49 -104 -88 -107 -84 -3 3 8
18 26 33 17 15 32 36 34 47 2 12 12 21 26 23 14 2 24 13 28 28 4 15 13 24 25
24 11 0 42 18 70 40 49 39 79 50 79 31z m1227 -146 c105 -31 183 -104 183
-171 0 -50 -13 -54 -122 -36 -94 15 -100 15 -174 -6 -114 -31 -122 -17 -26 44
91 58 92 56 -37 103 -46 17 -90 36 -97 42 -19 16 -18 36 4 43 30 9 218 -4 269
-19z m-1617 -87 c0 -14 -50 -68 -62 -68 -17 0 -7 32 17 55 26 27 45 32 45 13z
m3 -112 c-28 -35 -53 -52 -53 -38 0 12 61 72 72 72 6 0 -3 -15 -19 -34z m1326
-38 c31 -8 49 -20 62 -42 39 -64 27 -75 -111 -105 -47 -10 -93 -22 -102 -26
-29 -12 -21 11 14 41 31 25 32 27 14 38 -26 15 -66 53 -66 63 1 47 77 60 189
31z m1400 -55 c12 -14 19 -28 16 -31 -8 -8 -55 28 -55 43 0 23 16 18 39 -12z
m159 -95 c28 -22 52 -44 52 -49 0 -18 -29 -8 -71 26 -24 19 -51 35 -60 35 -9
0 -24 9 -34 20 -17 18 -17 20 -2 14 10 -3 17 -1 17 5 0 16 30 0 98 -51z
m-3050 -5 c-11 -26 -73 -102 -76 -94 -4 13 56 101 69 101 6 0 9 -3 7 -7z
m1775 -75 c103 -44 121 -108 63 -232 -26 -57 -43 -80 -77 -103 -24 -17 -53
-40 -63 -52 -11 -11 -25 -21 -32 -21 -7 0 -31 -22 -54 -50 -23 -27 -46 -50
-51 -50 -5 0 -26 -18 -46 -41 -77 -85 -173 -126 -312 -132 -34 -2 -36 -4 -87
-113 l-52 -112 43 -22 c34 -17 51 -36 75 -81 17 -32 35 -61 39 -63 5 -3 11 15
14 40 5 45 12 62 22 52 4 -3 8 -55 11 -114 3 -60 12 -129 20 -153 20 -64 18
-90 -8 -100 -26 -10 -43 -3 -105 43 -53 39 -95 128 -119 249 -20 102 -15 104
-98 -30 -71 -113 -134 -172 -218 -203 -35 -13 -82 -34 -106 -48 -24 -13 -46
-22 -49 -18 -3 3 15 30 41 60 116 136 283 433 380 677 53 134 56 156 21 169
-32 12 -32 23 1 49 40 32 85 36 136 13 63 -28 77 -63 54 -144 -9 -33 -15 -62
-13 -64 5 -5 143 62 207 101 73 44 106 52 129 31 18 -16 20 -15 34 26 32 90
87 285 93 328 8 61 -8 75 -79 67 -74 -7 -150 -37 -246 -96 -102 -62 -132 -72
-242 -78 -107 -7 -164 8 -149 38 6 10 16 19 23 19 7 0 50 16 97 36 349 146
559 182 703 122z m1424 -43 c59 -60 75 -85 54 -85 -5 0 -27 18 -50 40 -22 22
-45 40 -50 40 -4 0 -20 9 -35 21 -21 17 -24 24 -15 35 19 23 29 17 96 -51z
m-3344 15 c-6 -23 -31 -46 -40 -37 -7 8 24 57 36 57 5 0 7 -9 4 -20z m31 -45
c-4 -8 -10 -12 -15 -9 -11 6 -2 24 11 24 5 0 7 -7 4 -15z m2207 -42 c16 -10
41 -40 54 -67 l25 -50 27 62 c31 72 49 82 38 20 -4 -24 -9 -57 -10 -74 -2 -17
-14 -62 -28 -100 -14 -38 -35 -114 -46 -168 -12 -55 -24 -103 -27 -108 -23
-36 -115 40 -134 111 -9 35 -9 61 3 125 15 87 59 266 65 266 2 0 17 -8 33 -17z
m1440 -15 c22 -27 24 -38 6 -38 -7 0 -18 14 -24 30 -13 36 -8 38 18 8z m-2043
-120 c52 -43 -95 -121 -197 -104 -40 6 -81 41 -66 55 16 15 117 52 165 61 47
8 77 4 98 -12z m-1818 -88 c0 -5 7 -10 15 -10 8 0 15 -4 15 -10 0 -13 -12 -13
-44 0 -31 11 -34 30 -6 30 11 0 20 -4 20 -10z m4210 -330 c12 -23 12 -24 -3
-11 -10 7 -17 20 -17 29 0 18 3 16 20 -18z m-2172 -102 c55 -26 92 -79 92
-134 0 -50 -27 -105 -105 -214 -73 -101 -106 -119 -212 -120 -61 0 -77 4 -94
21 -25 25 -17 38 48 76 24 14 59 43 77 65 45 53 131 221 123 242 -11 28 -80
19 -185 -23 -184 -73 -245 -73 -163 0 117 104 300 142 419 87z m2071 -8 c0
-10 -3 -8 -9 5 -12 27 -12 43 0 25 5 -8 9 -22 9 -30z m74 -13 c-8 -12 -33 20
-33 42 1 12 6 10 20 -8 11 -12 17 -28 13 -34z m27 -58 c0 -6 -4 -7 -10 -4 -5
3 -10 11 -10 16 0 6 5 7 10 4 6 -3 10 -11 10 -16z m45 -170 c9 -30 24 -116 35
-192 25 -183 28 -197 48 -197 11 0 17 -8 17 -22 1 -13 4 -45 8 -73 6 -45 5
-48 -8 -31 -8 11 -15 32 -15 48 0 46 -20 32 -21 -14 -1 -62 -6 -38 -19 94 -7
65 -16 115 -20 113 -14 -9 -23 16 -11 28 17 17 13 72 -10 150 -24 82 -40 172
-28 160 5 -5 16 -34 24 -64z m-1902 -381 c23 -7 60 -31 83 -53 l42 -40 -4
-135 c-3 -74 -6 -156 -8 -182 -2 -27 0 -48 4 -48 4 0 27 7 50 15 71 25 104 20
150 -23 44 -42 53 -85 23 -100 -10 -5 -52 -14 -93 -21 -41 -7 -89 -17 -107
-22 -35 -11 -36 -14 -48 -133 -4 -42 -17 -79 -43 -127 -20 -37 -34 -70 -31
-73 3 -3 47 4 99 14 52 11 141 24 196 29 56 5 111 14 123 21 43 22 179 -37
206 -90 18 -36 18 -35 0 -54 -13 -12 -36 -14 -138 -9 -264 12 -470 -27 -822
-157 -43 -16 -83 -22 -140 -23 -98 0 -195 19 -195 39 0 8 10 14 23 14 12 0 81
21 152 46 72 25 200 69 285 97 85 28 156 52 158 53 5 3 -14 283 -20 289 -3 3
-26 1 -51 -5 -36 -10 -56 -9 -107 4 -80 21 -77 21 -89 -17 -21 -64 -87 -150
-136 -178 -28 -16 -56 -42 -69 -65 -26 -46 -46 -55 -46 -21 0 39 36 181 90
358 54 175 58 197 35 205 -18 7 -20 30 -2 37 22 8 102 -22 141 -54 l38 -32 -4
-72 c-2 -46 0 -71 7 -70 5 2 53 17 105 34 l95 31 -10 235 c-7 162 -14 238 -22
247 -39 38 5 58 80 36z m1877 -28 c0 -5 -2 -10 -4 -10 -3 0 -8 5 -11 10 -3 6
-1 10 4 10 6 0 11 -4 11 -10z m201 -141 c-9 -32 -9 -31 -10 22 -1 31 2 59 7
63 11 12 14 -48 3 -85z m-2974 -215 c61 -38 88 -74 79 -109 -8 -30 -55 -55
-108 -56 -39 0 -113 -51 -145 -99 -40 -57 -38 -9 2 64 20 36 35 71 33 78 -3 7
-36 28 -74 48 -88 44 -92 67 -19 93 75 26 172 18 232 -19z m2804 -21 c-9 -16
-10 -16 -11 -1 0 9 3 25 7 35 7 16 8 17 11 1 2 -10 -1 -25 -7 -35z m-4506 -60
c-4 -21 -11 -45 -15 -53 -7 -13 -10 -13 -15 3 -11 28 4 87 22 87 12 0 14 -7 8
-37z m4730 -49 c-5 -35 -12 -47 -36 -59 -28 -15 -29 -15 -29 9 0 25 23 56 42
56 6 0 8 8 5 19 -2 10 0 27 6 37 11 18 11 18 15 0 2 -10 1 -38 -3 -62z m-100
-43 c-4 -17 -11 -33 -16 -37 -9 -5 -6 25 7 65 8 26 16 3 9 -28z m-155 -71 c0
-5 -4 -10 -10 -10 -5 0 -10 5 -10 10 0 6 5 10 10 10 6 0 10 -4 10 -10z m230 1
c0 -4 -5 -23 -11 -40 -9 -24 -16 -31 -30 -28 -10 3 -20 0 -23 -7 -2 -6 -5 -2
-5 9 -1 24 37 75 56 75 7 0 13 -4 13 -9z m-110 -41 c0 -5 -5 -10 -11 -10 -5 0
-7 5 -4 10 3 6 8 10 11 10 2 0 4 -4 4 -10z m-4026 -50 c16 -40 22 -89 10 -77
-5 5 -42 102 -44 115 0 1 4 2 9 2 5 0 16 -18 25 -40z m4077 -37 c7 -19 7 -41
-2 -75 -13 -54 -31 -78 -60 -78 -23 0 -26 28 -3 37 8 3 13 12 9 21 -3 8 6 24
21 38 21 20 24 30 19 54 -8 37 2 39 16 3z m-221 -31 c0 -4 -4 -12 -10 -18 -10
-10 -82 -214 -103 -291 -10 -38 -14 -42 -37 -36 -14 3 -28 12 -33 19 -4 7 -15
10 -24 7 -11 -4 -14 -3 -9 6 4 6 13 11 19 10 30 -4 47 2 47 16 0 8 13 38 28
67 28 53 72 157 72 170 0 22 22 58 35 58 8 0 15 -4 15 -8z m-83 -44 c-3 -7 -5
-2 -5 12 0 14 2 19 5 13 2 -7 2 -19 0 -25z m-4063 -10 c11 -42 5 -53 -9 -19
-18 39 -18 41 -6 41 5 0 11 -10 15 -22z m-60 -4 c5 -14 4 -15 -9 -4 -17 14
-19 20 -6 20 5 0 12 -7 15 -16z m1366 -109 c48 -25 72 -71 65 -125 -25 -186
-20 -221 41 -289 24 -27 75 -68 111 -92 78 -48 159 -122 179 -161 25 -48 18
-77 -21 -94 -34 -14 -185 -21 -172 -7 4 3 30 16 59 27 84 34 84 34 -107 146
-210 124 -274 216 -298 432 -10 95 -11 97 -44 115 -38 20 -39 41 -3 61 32 17
147 9 190 -13z m2560 -126 c0 -7 -9 -42 -20 -78 -24 -79 -50 -117 -74 -108
-16 6 -14 13 12 64 17 32 38 75 48 96 18 36 34 48 34 26z m-3870 -69 c0 -5 -7
-10 -16 -10 -8 0 -12 5 -9 10 3 6 10 10 16 10 5 0 9 -4 9 -10z m-21 -65 c0 -5
-6 -1 -14 9 -8 11 -15 27 -15 35 1 17 29 -26 29 -44z m3931 26 c0 -31 38 -37
66 -10 13 12 26 20 29 17 6 -6 -29 -72 -55 -103 -9 -11 -31 -45 -48 -75 -29
-52 -149 -190 -165 -190 -4 0 -7 7 -7 15 0 8 4 15 9 15 5 0 11 10 15 23 3 12
24 46 47 76 23 30 50 79 60 109 10 30 24 61 30 68 8 9 8 14 1 14 -6 0 -41 -44
-78 -97 -78 -113 -214 -259 -225 -242 -5 8 -14 7 -30 -5 -13 -9 -41 -21 -61
-26 -30 -9 -38 -16 -44 -43 -4 -17 -7 -39 -6 -47 1 -10 -1 -11 -4 -2 -3 6 -15
12 -26 12 -14 0 -18 -5 -13 -19 4 -14 -2 -21 -24 -30 -16 -7 -46 -28 -67 -47
-42 -39 -101 -67 -121 -59 -8 2 -16 -2 -19 -10 -12 -30 -74 -11 -74 22 0 18
50 29 60 13 6 -9 14 -6 30 13 13 14 40 33 62 41 21 9 41 23 44 31 4 8 16 15
29 15 14 0 52 29 110 85 48 47 96 85 106 85 11 0 19 5 19 11 0 6 32 46 72 89
39 43 77 91 84 106 11 25 12 26 13 8 1 -12 -9 -33 -20 -48 -25 -32 -21 -40 14
-27 16 6 52 49 99 120 40 61 76 111 81 111 4 0 7 -9 7 -19z m-1197 -35 c31
-15 68 -41 83 -59 22 -26 25 -38 21 -74 -10 -88 -89 -155 -213 -179 -110 -21
-117 -26 -51 -34 108 -14 131 -74 44 -119 -87 -44 -215 -24 -261 41 -26 37
-19 56 27 79 69 35 144 106 197 187 27 42 50 82 50 89 0 29 -51 26 -133 -7
-73 -30 -95 -34 -199 -38 -131 -5 -142 2 -90 50 36 34 74 52 152 71 97 25 106
26 216 23 87 -2 110 -6 157 -30z m-688 -84 c48 -26 50 -29 75 -111 15 -49 30
-80 34 -73 4 7 14 12 22 12 10 0 14 -13 14 -49 0 -27 6 -66 14 -88 23 -66 4
-123 -41 -123 -32 0 -128 97 -165 165 -29 55 -58 179 -58 250 0 43 2 45 28 45
15 0 49 -13 77 -28z m1811 -209 c-10 -10 -19 5 -10 18 6 11 8 11 12 0 2 -7 1
-15 -2 -18z m-3532 -22 c8 -15 38 -56 66 -90 29 -33 47 -61 41 -61 -11 0 -96
102 -124 149 -10 17 -13 31 -8 31 6 0 17 -13 25 -29z m3472 -46 c-15 -19 -36
-40 -48 -46 -14 -7 -6 7 22 40 48 57 68 62 26 6z m-124 -41 c11 -10 -4 -44
-19 -44 -9 0 -13 6 -9 15 3 8 1 15 -5 15 -6 0 -7 5 -4 10 7 11 28 13 37 4z
m-105 -112 c-5 -7 -17 -10 -25 -7 -7 3 -26 -4 -42 -15 -15 -11 -34 -20 -42
-19 -10 0 -10 2 0 6 6 2 12 10 12 17 0 19 82 55 96 42 9 -8 9 -15 1 -24z
m-2965 -99 c35 -31 90 -76 123 -101 44 -33 59 -49 57 -64 -3 -17 0 -20 22 -14
13 3 28 2 31 -4 3 -5 -1 -10 -9 -10 -10 0 -13 -6 -10 -15 8 -20 -22 -30 -42
-14 -9 7 -20 24 -25 37 -7 17 -14 22 -29 17 -15 -5 -18 -3 -14 9 6 15 -24 76
-37 76 -3 0 -27 18 -52 40 -25 22 -50 40 -55 40 -11 0 -42 39 -42 52 0 18 23
5 82 -49z m289 7 c13 -10 19 -19 13 -20 -7 0 -22 9 -35 20 -13 10 -19 19 -13
20 7 0 22 -9 35 -20z m120 -65 c30 -19 63 -41 74 -49 l20 -15 -20 0 c-24 -1
-145 74 -145 89 0 17 16 12 71 -25z m2069 -4 c0 -11 -15 -16 -90 -29 -108 -19
-141 -2 -45 23 61 15 135 19 135 6z m211 -25 c-11 -13 -71 -40 -71 -31 0 5 64
45 74 45 5 0 3 -6 -3 -14z m139 5 c0 -5 -10 -11 -22 -14 -22 -6 -22 -6 -4 8
23 17 26 18 26 6z m-230 -11 c0 -5 -4 -10 -10 -10 -5 0 -10 5 -10 10 0 6 5 10
10 10 6 0 10 -4 10 -10z m-2235 -25 c22 -13 51 -29 65 -36 14 -6 32 -15 40
-20 8 -5 24 -13 35 -18 11 -5 33 -23 49 -40 27 -28 28 -31 9 -31 -11 0 -38 14
-59 31 -22 18 -71 47 -109 65 -39 18 -79 42 -89 53 -19 21 -19 21 0 21 10 0
37 -11 59 -25z m2368 -42 c-20 -15 -33 -17 -33 -3 0 5 -7 7 -15 4 -9 -4 -15 0
-15 9 0 10 11 17 33 19 38 4 54 -12 30 -29z m-2148 -3 c3 -5 2 -10 -4 -10 -5
0 -13 5 -16 10 -3 6 -2 10 4 10 5 0 13 -4 16 -10z m-245 -40 c14 -11 21 -20
17 -20 -11 0 -67 29 -67 35 0 11 27 3 50 -15z m139 -87 c2 -2 2 -6 -2 -9 -7
-7 -67 27 -67 38 0 5 37 -10 69 -29z m-204 17 c3 -5 -1 -10 -9 -10 -9 0 -16 5
-16 10 0 6 4 10 9 10 6 0 13 -4 16 -10z m524 -76 c9 -10 -53 6 -63 17 -6 5 4
5 24 -1 18 -5 35 -12 39 -16z m179 -20 c52 -6 56 -24 5 -24 -37 0 -140 23
-150 34 -5 5 52 1 145 -10z m200 -111 c16 -4 20 -8 12 -13 -15 -9 -50 -1 -50
11 0 11 7 11 38 2z m436 -72 c7 -10 -17 -21 -42 -21 -15 1 -14 3 2 15 23 17
33 19 40 6z"/>
<path d="M1705 4850 c-3 -5 1 -10 10 -10 9 0 13 5 10 10 -3 6 -8 10 -10 10 -2
0 -7 -4 -10 -10z"/>
<path d="M1564 4805 c-19 -14 -19 -14 1 -14 11 0 31 6 45 14 l25 14 -26 1
c-14 0 -34 -7 -45 -15z"/>
<path d="M1445 4760 c-3 -6 1 -13 10 -16 19 -8 30 0 20 15 -8 14 -22 14 -30 1z"/>
<path d="M1372 4736 c-20 -11 -21 -14 -8 -25 17 -14 60 3 53 22 -5 16 -19 18
-45 3z"/>
<path d="M1295 4691 c-3 -5 -1 -12 5 -16 5 -3 10 1 10 9 0 18 -6 21 -15 7z"/>
<path d="M3780 4502 c0 -11 33 -42 44 -42 5 0 22 -12 40 -26 27 -23 31 -25 34
-10 6 29 -5 44 -47 66 -42 21 -71 26 -71 12z"/>
<path d="M832 4428 c-11 -13 -39 -41 -62 -62 -22 -21 -40 -47 -40 -57 0 -11 1
-19 3 -19 2 0 36 36 76 80 40 44 66 80 58 80 -7 0 -23 -10 -35 -22z"/>
<path d="M3959 4380 c24 -22 46 -38 48 -36 13 12 -13 50 -43 62 -52 22 -53 17
-5 -26z"/>
<path d="M3737 4336 c20 -27 53 -51 53 -38 0 11 -49 62 -61 62 -5 0 -2 -11 8
-24z"/>
<path d="M4026 4331 c-9 -14 20 -32 39 -25 17 7 17 8 -1 21 -21 15 -31 16 -38
4z"/>
<path d="M678 4258 c-8 -7 -32 -32 -53 -55 -32 -37 -34 -43 -18 -43 11 0 25
11 31 24 6 13 20 27 30 31 26 8 59 55 39 55 -7 0 -20 -6 -29 -12z"/>
<path d="M4120 4262 c0 -16 106 -112 124 -112 27 0 17 14 -49 70 -57 49 -75
58 -75 42z"/>
<path d="M565 4128 c-45 -51 -87 -120 -81 -133 3 -9 -11 -30 -37 -54 -43 -40
-47 -63 -7 -39 60 35 109 106 114 164 2 21 11 43 21 50 9 7 15 18 13 24 -2 6
-12 1 -23 -12z"/>
<path d="M3863 4121 c-2 -24 20 -44 42 -39 13 2 11 8 -12 30 -26 25 -29 26
-30 9z"/>
<path d="M4120 4132 c0 -10 43 -52 53 -52 16 0 5 20 -23 40 -16 12 -30 17 -30
12z"/>
<path d="M4310 4071 c10 -21 30 -37 30 -26 0 14 -21 45 -31 45 -6 0 -6 -7 1
-19z"/>
<path d="M3840 4071 c0 -5 7 -12 16 -15 24 -9 28 -7 14 9 -14 17 -30 20 -30 6z"/>
<path d="M4296 4027 c3 -10 9 -15 12 -12 3 3 0 11 -7 18 -10 9 -11 8 -5 -6z"/>
<path d="M4360 4022 c0 -12 19 -26 26 -19 2 2 -2 10 -11 17 -9 8 -15 8 -15 2z"/>
<path d="M4020 4010 c0 -5 5 -10 10 -10 6 0 10 5 10 10 0 6 -4 10 -10 10 -5 0
-10 -4 -10 -10z"/>
<path d="M4040 3984 c0 -3 11 -19 25 -36 14 -16 25 -24 25 -16 -1 22 -50 74
-50 52z"/>
<path d="M4276 3981 c-4 -5 -2 -12 3 -15 5 -4 12 -2 15 3 4 5 2 12 -3 15 -5 4
-12 2 -15 -3z"/>
<path d="M4180 3976 c0 -2 16 -21 36 -41 40 -41 58 -41 22 0 -22 25 -58 51
-58 41z"/>
<path d="M4410 3962 c0 -12 19 -26 26 -19 2 2 -2 10 -11 17 -9 8 -15 8 -15 2z"/>
<path d="M4875 3240 c3 -5 10 -10 16 -10 5 0 9 5 9 10 0 6 -7 10 -16 10 -8 0
-12 -4 -9 -10z"/>
<path d="M4765 3099 c-10 -15 3 -25 16 -12 7 7 7 13 1 17 -6 3 -14 1 -17 -5z"/>
<path d="M4979 2905 c-3 -5 0 -35 7 -65 10 -45 12 -49 12 -20 0 46 -12 98 -19
85z"/>
<path d="M10 2570 c0 -5 5 -10 11 -10 5 0 7 5 4 10 -3 6 -8 10 -11 10 -2 0 -4
-4 -4 -10z"/>
<path d="M4992 1920 c0 -14 2 -19 5 -12 2 6 2 18 0 25 -3 6 -5 1 -5 -13z"/>
<path d="M4967 1820 c-3 -11 -1 -20 4 -20 5 0 9 9 9 20 0 11 -2 20 -4 20 -2 0
-6 -9 -9 -20z"/>
<path d="M212 1734 c-23 -36 -22 -54 4 -54 8 0 14 -10 14 -24 0 -31 10 -56 21
-56 5 0 9 7 9 15 0 7 7 18 16 23 19 11 12 63 -12 83 -8 6 -14 17 -14 25 0 26
-16 21 -38 -12z"/>
<path d="M4927 1653 c-4 -3 -7 -11 -7 -17 0 -6 5 -5 12 2 6 6 9 14 7 17 -3 3
-9 2 -12 -2z"/>
<path d="M266 1550 c22 -59 36 -74 28 -30 -4 19 -15 44 -26 55 -19 20 -19 20
-2 -25z"/>
<path d="M4897 1573 c-4 -3 -7 -11 -7 -17 0 -6 5 -5 12 2 6 6 9 14 7 17 -3 3
-9 2 -12 -2z"/>
<path d="M4600 1539 c0 -5 5 -7 10 -4 6 3 10 8 10 11 0 2 -4 4 -10 4 -5 0 -10
-5 -10 -11z"/>
<path d="M4586 1511 c-4 -7 -5 -15 -2 -18 9 -9 19 4 14 18 -4 11 -6 11 -12 0z"/>
<path d="M4735 1470 c-11 -25 -30 -60 -43 -78 -24 -36 -22 -53 4 -37 18 12 65
123 62 145 -2 8 -12 -6 -23 -30z"/>
<path d="M320 1414 c0 -8 5 -12 10 -9 6 4 8 11 5 16 -9 14 -15 11 -15 -7z"/>
<path d="M4658 1308 c-8 -7 -38 -54 -67 -104 -28 -51 -58 -97 -66 -104 -17
-14 -20 -57 -5 -62 6 -2 4 -15 -5 -33 l-15 -30 25 28 c14 15 25 37 25 48 0 28
18 59 34 59 13 0 61 92 62 119 1 37 16 70 30 64 8 -3 14 1 14 11 0 19 -11 20
-32 4z"/>
<path d="M4511 1227 c-29 -43 -51 -83 -49 -89 5 -15 18 0 69 81 58 92 42 99
-20 8z"/>
<path d="M4396 1058 c-9 -12 -16 -26 -16 -31 0 -13 29 12 41 35 14 26 -6 23
-25 -4z"/>
<path d="M606 944 c-9 -23 -8 -24 19 -24 27 0 32 9 13 28 -16 16 -25 15 -32
-4z"/>
<path d="M4430 900 c-6 -12 -9 -24 -7 -27 3 -2 11 5 17 17 6 12 9 24 7 27 -3
2 -11 -5 -17 -17z"/>
<path d="M646 856 c3 -8 13 -17 22 -21 13 -5 13 -2 -3 15 -21 24 -26 25 -19 6z"/>
<path d="M4375 840 c-3 -5 -1 -10 4 -10 6 0 11 5 11 10 0 6 -2 10 -4 10 -3 0
-8 -4 -11 -10z"/>
<path d="M4308 815 c-10 -13 -18 -28 -18 -33 0 -5 -9 -12 -20 -15 -13 -3 -18
-10 -14 -21 9 -24 27 -19 63 18 28 29 31 37 22 55 -14 25 -12 26 -33 -4z"/>
<path d="M690 814 c0 -4 18 -29 40 -55 22 -26 40 -57 40 -69 0 -11 8 -23 18
-26 9 -3 29 -11 44 -19 33 -17 48 -2 24 24 -9 10 -16 23 -16 29 0 7 -17 20
-37 30 -34 16 -38 21 -35 50 3 28 0 32 -22 32 -13 0 -31 3 -40 6 -9 3 -16 3
-16 -2z"/>
<path d="M4087 783 c-20 -14 -37 -30 -37 -35 0 -5 18 6 40 23 36 29 45 39 37
39 -1 0 -19 -12 -40 -27z"/>
<path d="M4165 688 c-65 -53 -73 -66 -34 -60 16 2 29 8 29 13 0 5 16 27 36 49
46 51 33 50 -31 -2z"/>
<path d="M920 575 c7 -8 17 -15 22 -15 6 0 5 7 -2 15 -7 8 -17 15 -22 15 -6 0
-5 -7 2 -15z"/>
<path d="M4046 550 c-52 -40 -58 -47 -18 -24 29 17 72 54 61 54 -2 0 -21 -14
-43 -30z"/>
<path d="M972 538 c6 -17 105 -98 120 -98 6 0 4 8 -5 18 -10 10 -17 23 -17 28
0 5 -23 22 -51 37 -30 16 -49 23 -47 15z"/>
<path d="M4140 499 c0 -5 5 -7 10 -4 6 3 10 8 10 11 0 2 -4 4 -10 4 -5 0 -10
-5 -10 -11z"/>
<path d="M4030 425 c-14 -8 -20 -14 -14 -15 5 0 19 7 30 15 24 18 16 19 -16 0z"/>
<path d="M1216 348 c22 -25 48 -43 61 -44 12 -1 28 -6 36 -12 16 -14 247 -123
247 -117 0 2 -44 27 -97 56 -54 29 -138 77 -186 106 -48 29 -90 53 -94 53 -3
0 12 -19 33 -42z"/>
<path d="M1410 319 c0 -5 17 -17 38 -25 20 -9 64 -29 97 -44 97 -46 194 -82
213 -78 9 2 -17 16 -58 31 -41 16 -89 39 -107 53 -17 13 -42 24 -55 24 -13 0
-41 11 -63 25 -43 26 -65 31 -65 14z"/>
<path d="M1810 272 c0 -11 11 -24 26 -31 33 -15 46 -4 19 14 -11 8 -26 19 -32
25 -10 8 -13 6 -13 -8z"/>
<path d="M1955 62 c6 -6 30 -13 55 -17 29 -5 42 -4 35 3 -5 5 -30 12 -55 16
-28 5 -41 4 -35 -2z"/>
</g>
</svg>
